<?xml version="1.0" encoding="UTF-8" standalone="no" ?>
<!DOCTYPE svg PUBLIC "-//W3C//DTD SVG 1.1//EN" "http://www.w3.org/Graphics/SVG/1.1/DTD/svg11.dtd">
<svg xmlns="http://www.w3.org/2000/svg" xmlns:xlink="http://www.w3.org/1999/xlink" version="1.1" width="369.24261718750006" height="132.97216" xml:space="preserve">
<desc>Created with Fabric.js 1.6.0-rc.1</desc>
<defs></defs>
  <g transform="translate(71.8 63.43) scale(2 2)">
   <text font-family="GoodDog" font-size="40" font-weight="bold" style="stroke: none; stroke-width: 1; stroke-dasharray: none; stroke-linecap: butt; stroke-linejoin: miter; stroke-miterlimit: 10; fill: #ffffff; fill-rule: nonzero; opacity: 1;" ><tspan x="-30.4" y="8.98" style="stroke: none; stroke-width: 0; stroke-dasharray: none; stroke-linecap: butt; stroke-linejoin: miter; stroke-miterlimit: 4; fill: #ffffff; fill-rule: ; opacity: 1;">C</tspan><tspan x="-12.41" y="8.98" style="stroke: none; stroke-width: 0; stroke-dasharray: none; stroke-linecap: butt; stroke-linejoin: miter; stroke-miterlimit: 4; fill: #ffffff; fill-rule: ; opacity: 1;">a</tspan><tspan x="1.73" y="8.98" style="stroke: none; stroke-width: 0; stroke-dasharray: none; stroke-linecap: butt; stroke-linejoin: miter; stroke-miterlimit: 4; fill: #ffffff; fill-rule: ; opacity: 1;">k</tspan><tspan x="16.85" y="8.98" style="stroke: none; stroke-width: 0; stroke-dasharray: none; stroke-linecap: butt; stroke-linejoin: miter; stroke-miterlimit: 4; fill: #ffffff; fill-rule: ; opacity: 1;">e</tspan></text>
 </g>
  <g transform="translate(293.84 63.43) scale(1.97 2)">
   <text font-family="GoodDog" font-size="40" font-weight="bold" style="stroke: none; stroke-width: 1; stroke-dasharray: none; stroke-linecap: butt; stroke-linejoin: miter; stroke-miterlimit: 10; fill: #ffffff; fill-rule: nonzero; opacity: 1;" ><tspan x="-33.7" y="8.98" style="stroke: none; stroke-width: 0; stroke-dasharray: none; stroke-linecap: butt; stroke-linejoin: miter; stroke-miterlimit: 4; fill: #ffffff; fill-rule: ; opacity: 1;">C</tspan><tspan x="-15.71" y="8.98" style="stroke: none; stroke-width: 0; stroke-dasharray: none; stroke-linecap: butt; stroke-linejoin: miter; stroke-miterlimit: 4; fill: #ffffff; fill-rule: ; opacity: 1;">l</tspan><tspan x="-7.8" y="8.98" style="stroke: none; stroke-width: 0; stroke-dasharray: none; stroke-linecap: butt; stroke-linejoin: miter; stroke-miterlimit: 4; fill: #ffffff; fill-rule: ; opacity: 1;">o</tspan><tspan x="3.47" y="8.98" style="stroke: none; stroke-width: 0; stroke-dasharray: none; stroke-linecap: butt; stroke-linejoin: miter; stroke-miterlimit: 4; fill: #ffffff; fill-rule: ; opacity: 1;">c</tspan><tspan x="18.58" y="8.98" style="stroke: none; stroke-width: 0; stroke-dasharray: none; stroke-linecap: butt; stroke-linejoin: miter; stroke-miterlimit: 4; fill: #ffffff; fill-rule: ; opacity: 1;">k</tspan></text>
 </g>
<g style="stroke: none; stroke-width: 1; stroke-dasharray: none; stroke-linecap: butt; stroke-linejoin: miter; stroke-miterlimit: 10; fill: none; fill-rule: nonzero; opacity: 1;" transform="translate(147.14999999999998 10) scale(0.1 0.14)" >
  <path d="M 306 0 C 137.012 0 0 137.012 0 306 c 0 169.026 137.012 306 306 306 s 306 -136.974 306 -306 C 612 137.012 474.988 0 306 0 z M 306 573.75 C 158.125 573.75 38.25 453.875 38.25 306 C 38.25 158.125 158.125 38.25 306 38.25 c 147.875 0 267.75 119.875 267.75 267.75 C 573.75 453.875 453.875 573.75 306 573.75 z" style="stroke: none; stroke-width: 1; stroke-dasharray: none; stroke-linecap: butt; stroke-linejoin: miter; stroke-miterlimit: 10; fill: #fffff8; fill-rule: nonzero; opacity: 1;" transform="" stroke-linecap="round" />
</g>
  <g transform="translate(186.99 106.77) scale(0.6 0.63)">
   <text font-family="Gochi Hand" font-size="40" font-weight="normal" style="stroke: none; stroke-width: 1; stroke-dasharray: none; stroke-linecap: butt; stroke-linejoin: miter; stroke-miterlimit: 10; fill: #000000; fill-rule: nonzero; opacity: 1;" ><tspan x="-256.44" y="8.98" style="stroke: none; stroke-width: 0; stroke-dasharray: none; stroke-linecap: butt; stroke-linejoin: miter; stroke-miterlimit: 4; fill: #000000; fill-rule: ; opacity: 1;">A</tspan><tspan x="-232.84" y="8.98" style="stroke: none; stroke-width: 0; stroke-dasharray: none; stroke-linecap: butt; stroke-linejoin: miter; stroke-miterlimit: 4; fill: #000000; fill-rule: ; opacity: 1;"> </tspan><tspan x="-223.37" y="8.98" style="stroke: none; stroke-width: 0; stroke-dasharray: none; stroke-linecap: butt; stroke-linejoin: miter; stroke-miterlimit: 4; fill: #000000; fill-rule: ; opacity: 1;">t</tspan><tspan x="-207.04" y="8.98" style="stroke: none; stroke-width: 0; stroke-dasharray: none; stroke-linecap: butt; stroke-linejoin: miter; stroke-miterlimit: 4; fill: #000000; fill-rule: ; opacity: 1;">r</tspan><tspan x="-192.88" y="8.98" style="stroke: none; stroke-width: 0; stroke-dasharray: none; stroke-linecap: butt; stroke-linejoin: miter; stroke-miterlimit: 4; fill: #000000; fill-rule: ; opacity: 1;">e</tspan><tspan x="-172.24" y="8.98" style="stroke: none; stroke-width: 0; stroke-dasharray: none; stroke-linecap: butt; stroke-linejoin: miter; stroke-miterlimit: 4; fill: #000000; fill-rule: ; opacity: 1;">a</tspan><tspan x="-150.03" y="8.98" style="stroke: none; stroke-width: 0; stroke-dasharray: none; stroke-linecap: butt; stroke-linejoin: miter; stroke-miterlimit: 4; fill: #000000; fill-rule: ; opacity: 1;">t</tspan><tspan x="-133.7" y="8.98" style="stroke: none; stroke-width: 0; stroke-dasharray: none; stroke-linecap: butt; stroke-linejoin: miter; stroke-miterlimit: 4; fill: #000000; fill-rule: ; opacity: 1;"> </tspan><tspan x="-124.23" y="8.98" style="stroke: none; stroke-width: 0; stroke-dasharray: none; stroke-linecap: butt; stroke-linejoin: miter; stroke-miterlimit: 4; fill: #000000; fill-rule: ; opacity: 1;">f</tspan><tspan x="-111.98" y="8.98" style="stroke: none; stroke-width: 0; stroke-dasharray: none; stroke-linecap: butt; stroke-linejoin: miter; stroke-miterlimit: 4; fill: #000000; fill-rule: ; opacity: 1;">o</tspan><tspan x="-91.22" y="8.98" style="stroke: none; stroke-width: 0; stroke-dasharray: none; stroke-linecap: butt; stroke-linejoin: miter; stroke-miterlimit: 4; fill: #000000; fill-rule: ; opacity: 1;">r</tspan><tspan x="-77.06" y="8.98" style="stroke: none; stroke-width: 0; stroke-dasharray: none; stroke-linecap: butt; stroke-linejoin: miter; stroke-miterlimit: 4; fill: #000000; fill-rule: ; opacity: 1;"> </tspan><tspan x="-67.59" y="8.98" style="stroke: none; stroke-width: 0; stroke-dasharray: none; stroke-linecap: butt; stroke-linejoin: miter; stroke-miterlimit: 4; fill: #000000; fill-rule: ; opacity: 1;">e</tspan><tspan x="-46.94" y="8.98" style="stroke: none; stroke-width: 0; stroke-dasharray: none; stroke-linecap: butt; stroke-linejoin: miter; stroke-miterlimit: 4; fill: #000000; fill-rule: ; opacity: 1;">v</tspan><tspan x="-29.31" y="8.98" style="stroke: none; stroke-width: 0; stroke-dasharray: none; stroke-linecap: butt; stroke-linejoin: miter; stroke-miterlimit: 4; fill: #000000; fill-rule: ; opacity: 1;">e</tspan><tspan x="-8.66" y="8.98" style="stroke: none; stroke-width: 0; stroke-dasharray: none; stroke-linecap: butt; stroke-linejoin: miter; stroke-miterlimit: 4; fill: #000000; fill-rule: ; opacity: 1;">r</tspan><tspan x="5.5" y="8.98" style="stroke: none; stroke-width: 0; stroke-dasharray: none; stroke-linecap: butt; stroke-linejoin: miter; stroke-miterlimit: 4; fill: #000000; fill-rule: ; opacity: 1;">y</tspan><tspan x="25.19" y="8.98" style="stroke: none; stroke-width: 0; stroke-dasharray: none; stroke-linecap: butt; stroke-linejoin: miter; stroke-miterlimit: 4; fill: #000000; fill-rule: ; opacity: 1;"> </tspan><tspan x="34.66" y="8.98" style="stroke: none; stroke-width: 0; stroke-dasharray: none; stroke-linecap: butt; stroke-linejoin: miter; stroke-miterlimit: 4; fill: #000000; fill-rule: ; opacity: 1;">S</tspan><tspan x="53.21" y="8.98" style="stroke: none; stroke-width: 0; stroke-dasharray: none; stroke-linecap: butt; stroke-linejoin: miter; stroke-miterlimit: 4; fill: #000000; fill-rule: ; opacity: 1;">w</tspan><tspan x="84.21" y="8.98" style="stroke: none; stroke-width: 0; stroke-dasharray: none; stroke-linecap: butt; stroke-linejoin: miter; stroke-miterlimit: 4; fill: #000000; fill-rule: ; opacity: 1;">e</tspan><tspan x="104.85" y="8.98" style="stroke: none; stroke-width: 0; stroke-dasharray: none; stroke-linecap: butt; stroke-linejoin: miter; stroke-miterlimit: 4; fill: #000000; fill-rule: ; opacity: 1;">e</tspan><tspan x="125.5" y="8.98" style="stroke: none; stroke-width: 0; stroke-dasharray: none; stroke-linecap: butt; stroke-linejoin: miter; stroke-miterlimit: 4; fill: #000000; fill-rule: ; opacity: 1;">t</tspan><tspan x="141.83" y="8.98" style="stroke: none; stroke-width: 0; stroke-dasharray: none; stroke-linecap: butt; stroke-linejoin: miter; stroke-miterlimit: 4; fill: #000000; fill-rule: ; opacity: 1;"> </tspan><tspan x="151.3" y="8.98" style="stroke: none; stroke-width: 0; stroke-dasharray: none; stroke-linecap: butt; stroke-linejoin: miter; stroke-miterlimit: 4; fill: #000000; fill-rule: ; opacity: 1;">t</tspan><tspan x="167.63" y="8.98" style="stroke: none; stroke-width: 0; stroke-dasharray: none; stroke-linecap: butt; stroke-linejoin: miter; stroke-miterlimit: 4; fill: #000000; fill-rule: ; opacity: 1;">o</tspan><tspan x="188.39" y="8.98" style="stroke: none; stroke-width: 0; stroke-dasharray: none; stroke-linecap: butt; stroke-linejoin: miter; stroke-miterlimit: 4; fill: #000000; fill-rule: ; opacity: 1;">o</tspan><tspan x="209.15" y="8.98" style="stroke: none; stroke-width: 0; stroke-dasharray: none; stroke-linecap: butt; stroke-linejoin: miter; stroke-miterlimit: 4; fill: #000000; fill-rule: ; opacity: 1;">t</tspan><tspan x="225.48" y="8.98" style="stroke: none; stroke-width: 0; stroke-dasharray: none; stroke-linecap: butt; stroke-linejoin: miter; stroke-miterlimit: 4; fill: #000000; fill-rule: ; opacity: 1;">h</tspan><tspan x="246.96" y="8.98" style="stroke: none; stroke-width: 0; stroke-dasharray: none; stroke-linecap: butt; stroke-linejoin: miter; stroke-miterlimit: 4; fill: #000000; fill-rule: ; opacity: 1;"> </tspan></text>
 </g>
<g style="stroke: none; stroke-width: 1; stroke-dasharray: none; stroke-linecap: butt; stroke-linejoin: miter; stroke-miterlimit: 10; fill: none; fill-rule: nonzero; opacity: 1;" transform="translate(155.41999999999996 20.20999999999998) scale(0.09 0.13)" >
  <path d="M 255 0 C 114.75 0 0 114.75 0 255 s 114.75 255 255 255 s 255 -114.75 255 -255 S 395.25 0 255 0 z" style="stroke: none; stroke-width: 1; stroke-dasharray: none; stroke-linecap: butt; stroke-linejoin: miter; stroke-miterlimit: 10; fill: #f296ea; fill-rule: nonzero; opacity: 1;" transform=" matrix(1 0 0 1 0 0) " stroke-linecap="round" />
</g>
<g style="stroke: none; stroke-width: 1; stroke-dasharray: none; stroke-linecap: butt; stroke-linejoin: miter; stroke-miterlimit: 10; fill: none; fill-rule: nonzero; opacity: 1;" transform="translate(159.56000000000006 27.09999999999997) scale(0.2 0.2)" >
  <path d="M 4.98 154.05 a 43.82 43.82 0 0 1 1.343 2.532 a 125.44 125.44 0 0 0 1.875 3.594 c 0.52 0.961 1.432 2.897 2.031 4.436 c 0.6 1.539 1.169 3.025 1.282 3.281 c 0.113 0.257 0.091 0.733 0.562 1.5 c 0.187 0.577 0.428 1.305 0.563 1.625 c 0.134 0.32 0.727 1.949 1.312 3.594 c 0.585 1.645 1.198 3.251 1.375 3.594 c 0.177 0.342 0.339 0.747 0.344 0.875 c 0.005 0.128 0.274 0.794 0.594 1.5 c 1.868 4.127 2.948 7.381 5.561 17.868 c 0.887 3.558 1.821 8.67 2.218 11.686 c 0.076 0.577 0.324 2.552 0.438 3.322 c 0.115 0.77 0.457 2.653 0.534 4.063 c 0.077 1.411 0.316 4.65 0.624 7.343 c 0.307 2.693 0.552 6.327 0.686 8.187 c 0.288 4.008 1.274 5.48 1.502 6.089 c 0.563 1.5 1.067 3.101 1.683 3.595 c 0.28 0.224 0.847 0.861 1.282 1.406 c 0.434 0.545 2.663 2.339 5 3.781 c 0.956 0.59 3.191 2.287 5.437 3.375 c 0.134 0 1.526 0.648 3.281 1.281 c 2.403 1.165 3.234 1.034 5.592 1.716 c 0.895 0.208 2.609 0.864 3.25 1.031 c 0.641 0.168 1.587 0.49 2.75 0.875 c 1.628 0.386 2.499 0.587 4.094 1.219 c 1.744 0.403 3.235 1.036 3.843 1.094 c 0.61 0.057 1.693 0.293 2.438 0.531 c 0.745 0.238 2.419 0.626 3.437 0.719 c 1.02 0.275 2.5 0.532 2.938 0.593 c 0.438 0.062 1.418 0.209 2.187 0.344 c 1.826 0.321 7.527 0.914 10.532 1.094 c 1.99 0.119 6.543 0.412 16.281 0.531 c 3.434 0.042 6.597 0.327 8.214 0.16 c 1.51 -0.154 2.965 -0.25 3.25 -0.218 c 0.286 0.033 0.768 -0.026 1.063 -0.125 c 0.323 -0.108 6.36 -0.849 6.969 -0.906 c 0.609 -0.058 8.953 -2.39 9.156 -2.563 c 0.202 -0.173 3.886 -1.448 4.781 -1.656 c 2.937 -0.682 2.993 -1.35 5.781 -2 c 1.308 -0.634 2.491 -1.156 2.625 -1.156 c 0.134 0 1.044 -0.504 2 -1.094 c 2.337 -1.443 8.66 -5.642 9.094 -6.187 c 0.435 -0.545 1.002 -1.183 1.281 -1.407 c 0.616 -0.493 1.69 -2.094 2.253 -3.595 c 0.228 -0.609 1.024 -2.46 1.312 -6.468 c 0.134 -1.86 0.474 -5.588 0.781 -8.282 c 0.308 -2.693 0.642 -6.058 0.719 -7.468 c 0.077 -1.411 0.23 -3.2 0.344 -3.969 c 0.114 -0.77 0.268 -1.86 0.344 -2.438 c 0.396 -3.016 1.33 -8.253 2.217 -11.81 c 2.614 -10.488 3.788 -14.28 5.656 -18.407 c 0.32 -0.706 0.59 -1.403 0.594 -1.531 c 0.005 -0.129 0.167 -0.502 0.344 -0.844 c 0.177 -0.343 0.79 -1.98 1.375 -3.625 s 1.178 -3.242 1.312 -3.563 c 0.135 -0.32 0.408 -1.048 0.594 -1.625 c 0.187 -0.577 0.418 -1.274 0.531 -1.53 c 0.114 -0.257 0.682 -1.712 1.282 -3.25 c 0.6 -1.54 1.542 -3.602 2.062 -4.563 c 0.52 -0.962 1.248 -2.386 1.75 -3.404 c 0.5 -1.019 1.156 -2.161 1.468 -2.532 c 0.312 -0.37 0.562 -0.893 0.562 -1.187 c 0 -0.513 0.438 -1.45 -0.87 -1.78 c -1.457 -0.366 -4.093 -0.345 -5.25 0.063 c -1.28 0.452 -1.674 0.788 -3.813 3.188 c -0.988 1.108 -2.148 2.182 -2.562 2.375 c -0.593 0.275 -1.448 0.33 -3.97 0.25 c -3.3 -0.105 -4.188 0.014 -6.374 0.875 c -1.197 0.471 -2.098 1.348 -4.281 4.156 c -1.36 1.748 -2.062 1.938 -7.532 1.937 c -4.486 0 -7.64 0.353 -8.156 0.72 c -0.749 0.292 -1.418 0.937 -2.312 1.812 c -0.894 0.874 -2.07 1.914 -2.625 2.312 c -0.962 0.69 -1.092 0.746 -2.844 0.656 c -1.022 -0.052 -3.068 -0.433 -4.625 -0.843 c -3.207 -0.846 -5.528 -0.977 -7.031 -0.375 c -0.516 0.206 -0.53 0.254 -1.094 0.593 c -0.982 0.662 -1.55 0.985 -2.906 1.938 c -2.71 1.904 -3.624 2.176 -6.032 1.875 c -1.072 -0.134 -1.52 -0.34 -2.843 -1.406 c -0.863 -0.695 -1.904 -1.446 -2.344 -1.657 c -0.748 -0.358 -0.895 -0.358 -2 0.032 c -0.65 0.229 -2.066 0.955 -3.156 1.593 c -1.09 0.639 -2.378 1.294 -2.875 1.47 c -0.497 0.175 -1.407 0.32 -2 0.312 c -1.444 -0.022 -4.298 -1.296 -5.969 -2.657 c -1.76 -1.434 -2.727 -1.805 -4.313 -1.687 c -1.866 0.138 -3.902 0.589 -4.843 1.094 c -0.452 0.242 -1.41 0.548 -2.125 0.687 c -0.715 0.14 -1.57 0.364 -1.907 0.469 c -0.337 0.104 -1.21 0.083 -1.937 -0.031 c -1.504 -0.236 -2.414 -0.918 -3.938 -2.97 c -1.883 -2.534 -4.5 -2.976 -9.625 -1.624 c -1.556 0.41 -3.603 0.792 -4.625 0.844 c -1.751 0.089 -1.881 0.065 -2.843 -0.625 c -0.555 -0.399 -1.731 -1.438 -2.625 -2.313 c -0.894 -0.874 -1.918 -1.711 -2.282 -1.844 c -1.448 -0.527 -3.669 -0.719 -8.156 -0.718 c -5.47 0 -6.203 -0.19 -7.562 -1.938 c -2.183 -2.808 -3.085 -3.653 -4.282 -4.125 c -2.185 -0.86 -3.073 -1.01 -6.375 -0.906 c -2.52 0.08 -3.376 0.056 -3.968 -0.219 c -0.415 -0.192 -1.543 -1.266 -2.532 -2.375 c -2.139 -2.4 -2.563 -2.736 -3.843 -3.187 c -1.158 -0.409 -3.794 -0.46 -5.25 -0.094 c -1.31 0.33 -0.432 2.53 -0.089 3.093 z" style="stroke: none; stroke-width: 1; stroke-dasharray: none; stroke-linecap: butt; stroke-linejoin: miter; stroke-miterlimit: 10; fill: #dba986; fill-rule: nonzero; opacity: 1;" transform="" stroke-linecap="round" />
  <path d="M 44.74 123.043 c -3.08 0.161 -7.782 2.005 -11.374 4.688 c -1.29 0.963 -2.297 1.906 -3.25 2.563 c -0.677 0.466 -1.698 1.239 -2.219 1.718 c -2.078 1.913 -3.416 2.944 -5.844 4.344 c -1.396 0.805 -3.074 1.804 -3.718 2.219 c -1.685 1.084 -3.292 1.5 -4.344 1.156 c -2.22 -0.725 -3.267 -2.079 -3.281 -4.219 c 0.083 -2.062 0.295 -3.115 0.468 -4.344 c -0.046 0.033 -0.922 0.515 -0.937 0.532 c -1.504 1.585 -4.85 6.148 -5.25 6.656 c -0.4 0.508 -0.912 1.27 -1.125 1.688 c -0.213 0.416 -1.038 1.356 -1.375 2.093 c -0.338 0.738 -0.717 1.495 -0.844 1.688 c -0.942 1.431 -1.184 4.14 -0.5 5.687 c 0.26 0.589 0.92 0.997 1.344 1.469 c 0.888 0.562 3.985 0.483 5.156 0.406 c 1.875 -0.13 3.918 0.824 6.406 3.906 c 0.474 0.587 1.352 1.35 1.97 1.72 c 1.117 0.669 1.136 0.687 5.093 0.687 h 3.969 l 1.562 0.781 c 0.991 0.488 1.765 1.047 2.094 1.531 c 1.016 1.495 3.133 3.588 4.156 4.125 c 0.99 0.52 1.26 0.566 6.156 0.594 c 7.04 0.04 7.423 0.12 10.22 2.781 c 2.751 2.62 3.57 2.987 6.187 2.781 c 1.09 -0.085 2.14 -0.237 2.343 -0.343 c 0.93 -0.489 4.682 -1.225 6.188 -1.219 c 2.212 0.008 3.115 0.42 4.406 2.063 c 0.582 0.74 1.637 1.776 2.313 2.28 c 1.171 0.875 1.294 0.9 2.968 0.907 c 1.93 0.008 4.41 -0.387 5.344 -0.875 c 1.197 -0.625 2.495 -1.054 3.75 -1.219 c 2.388 -0.313 2.96 -0.122 5.25 1.656 c 0.762 0.592 2.156 1.446 3.125 1.907 c 1.687 0.802 1.858 0.833 3.531 0.687 c 1.811 -0.157 4.35 -1.188 6.375 -2.562 c 1.449 -0.983 2.427 -1.161 3.344 -0.594 c 0.426 0.263 0.33 0.303 0.781 0.656 c 0.338 0.331 1.987 1.594 3.094 1.969 c 1.696 0.575 2.723 0.643 4.094 0.25 c 1.286 -0.369 1.75 -0.635 5.156 -2.875 c 2.677 -1.76 3.123 -1.93 5.031 -1.938 c 1.506 -0.005 5.259 0.907 6.188 1.25 c 0.203 0.107 1.252 0.258 2.344 0.344 c 2.617 0.206 3.435 -0.162 6.187 -2.781 c 2.796 -2.66 3.18 -2.773 10.219 -2.813 c 4.899 -0.027 5.164 -0.04 6.156 -0.562 c 1.083 -0.569 2.857 -2.32 3.906 -3.844 c 1.34 -1.948 3.782 -2.669 8.563 -2.562 c 2.99 0.067 3.047 0.05 4.281 -0.656 c 0.685 -0.392 1.616 -1.19 2.094 -1.782 c 1.437 -1.78 2.69 -2.95 3.031 -3.219 c 1.105 -0.703 1.75 -0.614 3.281 -0.562 c 2.126 0.073 4.449 -0.139 5.594 -0.781 c 0.505 -0.472 0.36 -1.39 0.62 -1.978 c 0.38 -0.857 0.38 -0.62 0.28 -1.866 c -0.13 -1.646 -1.189 -4.553 -2.127 -6.41 c -1.81 -3.585 -4.641 -7.925 -5.125 -8.49 c -0.76 0.568 -0.568 0.158 -0.568 0.158 c -0.028 0.634 1.274 0.588 1.201 1.21 c -0.142 1.22 -1.11 2.418 -1.287 2.904 c -0.114 0.386 -0.114 1.901 -1.588 2.847 c -0.783 0.417 -2.294 0.417 -3.937 0 c -0.838 -0.213 -5.036 -2.112 -5.938 -2.75 c -0.902 -0.639 -9.274 -5.428 -11.78 -6.5 c -0.597 -0.218 -3.437 -1.897 -5.657 -0.031 c -0.582 0.616 -1.02 0.563 -1.348 5.84 c -0.243 3.903 0.035 3.797 -1.34 5.816 c -1.275 1.188 -4.442 1.986 -6.625 0.844 c -0.751 -0.394 -6.098 -3.835 -7 -4.407 c -0.902 -0.572 -3.778 -4.112 -4.367 -4.446 c -5.452 -3.725 -8.292 -4.425 -11.164 -4.842 c -2.078 -0.663 -9.805 0.558 -13.655 5.772 c -1.518 1.657 -2.778 3.04 -4.782 3.881 c -3.095 1.3 -5.74 1.954 -7.657 0.26 c -2.072 -1.825 -3.336 -3.911 -4.428 -5.906 c -2.54 -4.639 -3.8 -5.1 -7.915 -6.813 c -3.756 -1.645 -7.957 -0.691 -9.813 -0.093 c -1.182 0.38 -3.261 1.331 -4.656 2.094 c -7.1 3.88 -8.319 4.473 -10 5.03 c -1.146 0.38 -3.728 0.988 -5.313 0 c -1.68 -1.51 -1.02 -4.414 0.294 -8.47 c 0.756 -2.334 -0.307 -2.487 -1.544 -3.248 c -0.567 -0.349 -1.41 -0.491 -2.437 -0.438 z" style="stroke: none; stroke-width: 1; stroke-dasharray: none; stroke-linecap: butt; stroke-linejoin: miter; stroke-miterlimit: 10; fill: #c98134; fill-rule: nonzero; opacity: 1;" transform="" stroke-linecap="round" />
  <path d="M 8.058 151.213 c -0.986 -0.018 -2.022 0.035 -2.75 0.219 c -1.31 0.33 -0.407 2.53 -0.063 3.094 c 0.312 0.53 0.843 1.513 1.344 2.53 c 0.5 1.019 1.354 2.633 1.875 3.595 c 0.52 0.961 1.432 2.898 2.031 4.437 c 0.6 1.539 1.168 3.025 1.281 3.281 c 0.113 0.257 0.092 0.733 0.563 1.5 c 0.187 0.577 0.428 1.305 0.562 1.625 c 0.135 0.32 0.728 1.949 1.313 3.594 c 0.585 1.645 1.198 3.251 1.375 3.594 c 0.177 0.342 0.339 0.747 0.344 0.875 c 0.005 0.128 0.274 0.794 0.593 1.5 c 1.87 4.127 2.95 7.388 5.563 17.875 c 0.886 3.557 1.822 8.671 2.219 11.687 c 0.076 0.577 0.323 2.543 0.437 3.313 c 0.115 0.77 0.454 2.652 0.531 4.062 c 0.077 1.411 0.318 4.65 0.625 7.344 c 0.308 2.693 0.554 6.328 0.688 8.188 c 0.288 4.008 1.272 5.484 1.5 6.093 c 0.562 1.5 1.071 3.1 1.687 3.594 c 0.28 0.224 0.847 0.861 1.282 1.406 c 0.434 0.545 2.663 2.339 5 3.782 c 0.956 0.59 3.191 2.286 5.437 3.375 c 0.134 0 1.526 0.647 3.281 1.28 c 2.403 1.165 3.205 1.037 5.563 1.72 c 0.895 0.207 2.609 0.863 3.25 1.03 c 0.641 0.168 1.587 0.49 2.75 0.876 c 1.628 0.386 2.499 0.586 4.094 1.219 c 1.744 0.403 3.234 1.036 3.843 1.093 c 0.61 0.058 1.693 0.294 2.438 0.532 c 0.745 0.238 2.419 0.625 3.437 0.718 c 1.02 0.275 2.5 0.532 2.938 0.594 c 0.438 0.062 1.418 0.208 2.187 0.344 c 1.826 0.32 7.527 0.914 10.532 1.094 c 1.99 0.119 6.543 0.412 16.28 0.53 c 3.435 0.043 6.602 0.323 8.22 0.157 c 1.51 -0.155 2.964 -0.251 3.25 -0.219 c 0.285 0.033 0.767 -0.026 1.062 -0.125 c 0.323 -0.108 6.36 -0.848 6.969 -0.906 c 0.609 -0.058 8.954 -2.39 9.156 -2.562 c 0.203 -0.173 3.886 -1.449 4.781 -1.657 c 2.938 -0.682 2.993 -1.35 5.782 -2 c 1.307 -0.633 2.49 -1.156 2.625 -1.156 c 0.134 0 1.044 -0.504 2 -1.094 c 2.336 -1.442 8.659 -5.642 9.093 -6.187 c 0.435 -0.545 1.002 -1.183 1.282 -1.406 c 0.616 -0.494 1.687 -2.094 2.25 -3.594 c 0.228 -0.61 1.024 -2.46 1.312 -6.469 c 0.134 -1.86 0.474 -5.588 0.781 -8.281 c 0.308 -2.693 0.642 -6.058 0.72 -7.469 c 0.076 -1.41 0.228 -3.2 0.343 -3.969 c 0.114 -0.77 0.268 -1.86 0.344 -2.437 c 0.092 -0.702 0.357 -1.858 0.5 -2.75 c -1.932 1.883 -3.767 3.896 -5.75 5.687 c -18.472 17.809 -46.677 25.594 -70.97 15.782 c -29.647 -11.246 -44.594 -41.162 -54.062 -69.594 c -0.069 -0.084 -0.146 -0.126 -0.218 -0.219 c -2.184 -2.808 -3.085 -3.654 -4.282 -4.125 c -2.185 -0.86 -3.073 -1.01 -6.375 -0.906 c -2.521 0.08 -3.376 0.056 -3.968 -0.219 c -0.415 -0.192 -1.543 -1.266 -2.532 -2.375 c -2.139 -2.4 -2.563 -2.736 -3.843 -3.187 c -0.58 -0.205 -1.515 -0.295 -2.5 -0.313 z" style="stroke: none; stroke-width: 1; stroke-dasharray: none; stroke-linecap: butt; stroke-linejoin: miter; stroke-miterlimit: 10; fill: #d1a07f; fill-rule: nonzero; opacity: 1;" transform="" stroke-linecap="round" />
  <path d="M 94.97 84.46 c -5.925 -0.035 -11.888 0.201 -14.63 0.718 c -0.62 0.117 -9.965 1.687 -11.898 2.031 c -5.198 0.927 -8.655 1.806 -14.66 3.813 c -9.084 3.034 -14.328 5.609 -20.5 10.03 c -2.612 1.872 -9.253 8.203 -11.24 10.72 c -0.758 0.961 -4.195 5.436 -4.614 6 c -0.42 0.563 -1.454 1.944 -2.292 3.062 c -2.27 3.031 -3.313 6.54 -3.746 8.393 c -0.323 2.628 -0.582 3.528 -0.712 6.732 c 0.015 2.14 1.077 3.494 3.297 4.219 c 1.052 0.344 2.648 -0.072 4.332 -1.156 c 0.644 -0.415 2.308 -1.414 3.704 -2.22 c 2.428 -1.4 3.793 -2.43 5.87 -4.343 c 0.522 -0.48 1.522 -1.253 2.198 -1.719 c 0.954 -0.657 1.976 -1.599 3.265 -2.562 c 4.79 -3.578 11.545 -5.646 13.813 -4.25 c 1.238 0.761 1.259 1.008 0.503 3.344 c -1.314 4.055 -0.954 6.868 0.726 8.38 c 1.585 0.987 4.187 0.375 5.333 -0.005 c 1.681 -0.558 2.882 -1.152 9.983 -5.032 c 1.395 -0.762 3.495 -1.713 4.677 -2.093 c 1.856 -0.598 6.04 -1.552 9.795 0.093 c 4.116 1.713 4.618 2.174 7.158 6.813 c 1.092 1.995 3.107 4.08 5.18 5.906 c 1.917 1.694 4.565 1.893 7.66 0.594 c 2.004 -0.841 3.19 -1.655 4.709 -3.313 c 3.85 -5.213 11.67 -7.296 13.749 -6.632 c 2.871 0.417 5.034 1.313 10.486 5.039 c 0.59 0.334 4.121 3.115 5.023 3.687 c 0.902 0.572 6.25 4.013 7 4.406 c 2.183 1.143 5.35 0.345 6.625 -0.843 c 1.374 -2.019 1.483 -1.629 1.727 -5.532 c 0.328 -5.276 0.39 -5.508 0.973 -6.125 c 2.22 -1.865 5.051 -0.196 5.648 0.023 c 2.507 1.072 10.873 5.87 11.775 6.509 c 0.902 0.638 5.127 2.537 5.965 2.75 c 1.642 0.417 3.141 0.417 3.924 0 c 1.474 -0.946 2.053 -2.177 2.166 -2.563 c 0.178 -0.486 0.58 -1.968 0.722 -3.187 c 0.458 -3.925 0 -8.294 -1.099 -10.438 c -0.177 -0.346 -3.043 -6.114 -4.52 -7.844 c -0.608 -0.71 -4.737 -5.617 -6.561 -6.968 c -0.96 -0.711 -2.935 -2.435 -4.364 -3.813 c -1.429 -1.378 -3.072 -2.855 -3.673 -3.281 c -0.601 -0.426 -2.28 -1.625 -3.736 -2.656 c -3.614 -2.56 -4.358 -3 -5.714 -3.594 c -0.644 -0.283 -2.44 -1.13 -3.987 -1.875 c -5.626 -2.714 -9.252 -4.29 -11.333 -4.875 a 32.976 32.976 0 0 1 -2.228 -0.719 c -1.722 -0.646 -7.083 -2.013 -8.57 -2.187 c -0.71 -0.083 -12.725 -2.382 -13.563 -2.563 c -2.535 -0.547 -8.422 -0.84 -14.347 -0.875 z" style="stroke: none; stroke-width: 1; stroke-dasharray: none; stroke-linecap: butt; stroke-linejoin: miter; stroke-miterlimit: 10; fill: #ededff; fill-rule: nonzero; opacity: 1;" transform="" stroke-linecap="round" />
  <path d="M 177.798 134.21 c -0.316 0.237 -0.43 0.253 -0.5 0.25 c 0.145 0.5 1.193 0.55 1.125 1.126 c -0.142 1.22 -1.103 2.42 -1.28 2.906 c -0.114 0.386 -0.12 1.898 -1.595 2.844 c -0.391 0.208 -0.975 0.312 -1.656 0.312 h -0.031 c -3.68 4.865 -12.583 3.57 -18.281 4.125 c -9.21 2.007 -15.1 11.726 -25.063 11.656 c -10.978 0.818 -22.089 -0.671 -32.531 -4.093 c -13.688 -4.45 -28.187 -0.995 -41.313 3.656 c -5.255 1.653 -9.456 5.654 -14.875 7.125 c -0.55 0.169 -1.079 0.41 -1.625 0.594 c 5.173 0.067 6.336 0.3 8.844 2.687 c 2.752 2.62 3.57 2.987 6.188 2.781 c 1.09 -0.086 2.14 -0.237 2.343 -0.343 c 0.93 -0.489 4.682 -1.225 6.188 -1.22 c 2.212 0.01 3.115 0.42 4.406 2.063 c 0.582 0.74 1.637 1.777 2.313 2.282 c 1.171 0.874 1.294 0.898 2.968 0.906 c 1.93 0.008 4.41 -0.388 5.344 -0.875 c 1.197 -0.625 2.495 -1.054 3.75 -1.219 c 2.388 -0.314 2.96 -0.123 5.25 1.656 c 0.762 0.592 2.156 1.445 3.125 1.907 c 1.687 0.802 1.858 0.832 3.531 0.687 c 1.811 -0.157 4.35 -1.188 6.375 -2.562 c 1.449 -0.983 2.427 -1.161 3.344 -0.594 c 0.426 0.263 0.33 0.303 0.781 0.656 c 0.338 0.331 1.987 1.593 3.094 1.969 c 1.696 0.574 2.723 0.643 4.094 0.25 c 1.286 -0.369 1.75 -0.635 5.156 -2.875 c 2.677 -1.76 3.123 -1.931 5.031 -1.938 c 1.506 -0.005 5.259 0.907 6.188 1.25 c 0.203 0.107 1.252 0.258 2.344 0.344 c 2.617 0.206 3.435 -0.162 6.187 -2.781 c 2.796 -2.661 3.18 -2.773 10.219 -2.813 c 4.899 -0.027 5.164 -0.04 6.156 -0.562 c 1.083 -0.57 2.858 -2.32 3.906 -3.844 c 1.34 -1.948 3.782 -2.67 8.563 -2.562 c 2.99 0.066 3.047 0.05 4.281 -0.657 c 0.685 -0.391 1.616 -1.189 2.094 -1.781 c 1.437 -1.78 2.69 -2.951 3.031 -3.219 c 1.105 -0.703 1.75 -0.615 3.281 -0.562 c 2.126 0.072 4.449 -0.14 5.594 -0.781 c 0.505 -0.472 0.365 -1.38 0.625 -1.97 c 0.38 -0.857 0.38 -0.627 0.281 -1.874 c -0.131 -1.646 -1.186 -4.549 -2.125 -6.406 c -1.81 -3.585 -4.64 -7.935 -5.125 -8.5 z m -0.5 0.25 c -0.011 -0.04 -0.095 -0.046 -0.093 -0.093 c 0 0 -0.003 0.09 0.093 0.094 z M 11.677 131.057 c -0.046 0.033 -0.922 0.515 -0.937 0.531 c -1.504 1.585 -4.851 6.149 -5.25 6.657 c -0.4 0.507 -0.912 1.27 -1.125 1.687 c -0.214 0.417 -1.038 1.356 -1.375 2.094 c -0.338 0.737 -0.718 1.495 -0.844 1.687 c -0.942 1.432 -1.184 4.14 -0.5 5.688 c 0.26 0.588 0.92 0.997 1.344 1.469 c 0.887 0.561 3.984 0.483 5.156 0.406 c 1.875 -0.13 3.917 0.823 6.406 3.906 c 0.474 0.587 1.352 1.35 1.969 1.719 c 1.118 0.67 1.137 0.687 5.094 0.687 h 3.968 l 1.563 0.782 c 0.991 0.487 1.764 1.046 2.094 1.53 c 1.016 1.496 3.133 3.588 4.156 4.126 c 0.549 0.288 1.104 0.394 2.125 0.469 c -2.101 -4.056 -4.272 -8.031 -8.344 -10.47 c -6.271 -2.865 -10.664 -8.544 -13.437 -14.874 c -1.585 -0.78 -2.519 -1.934 -2.532 -3.75 c 0.084 -2.062 0.296 -3.116 0.47 -4.344 z" style="stroke: none; stroke-width: 1; stroke-dasharray: none; stroke-linecap: butt; stroke-linejoin: miter; stroke-miterlimit: 10; fill: #bd772c; fill-rule: nonzero; opacity: 1;" transform="" stroke-linecap="round" />
  <path d="M 11.459 130.053 c -0.06 0.33 -0.72 1.27 -1.5 2.094 c -1.504 1.585 -4.851 6.148 -5.25 6.656 c -0.4 0.508 -0.912 1.27 -1.125 1.687 c -0.214 0.417 -1.038 1.357 -1.376 2.094 c -0.337 0.737 -0.717 1.495 -0.843 1.688 c -0.942 1.431 -1.185 4.14 -0.5 5.687 c 0.26 0.589 0.92 0.997 1.344 1.469 c 0.887 0.562 2.062 2.249 2.406 2.812 a 43.82 43.82 0 0 1 1.343 2.532 c 0.501 1.018 1.355 2.631 1.875 3.593 c 0.521 0.962 1.432 2.993 2.032 4.532 c 0.6 1.538 1.168 3.024 1.281 3.28 c 0.113 0.257 0.376 0.924 0.563 1.5 c 0.186 0.578 0.428 1.305 0.562 1.626 c 0.134 0.32 0.727 1.948 1.313 3.594 c 0.585 1.645 1.197 3.25 1.375 3.593 c 0.177 0.343 0.338 0.747 0.343 0.875 c 0.005 0.129 0.275 0.795 0.594 1.5 c 1.869 4.128 3.043 7.95 5.656 18.438 c 0.887 3.557 1.916 8.859 2.313 11.875 c 0.076 0.577 0.23 1.699 0.344 2.469 c 0.114 0.769 0.266 2.558 0.343 3.968 c 0.077 1.411 0.411 4.745 0.719 7.438 c 0.308 2.693 0.648 6.421 0.781 8.281 c 0.288 4.008 1.084 5.86 1.313 6.469 c 0.562 1.5 1.446 3.006 2.062 3.5 c 0.28 0.224 0.847 0.861 1.282 1.406 c 0.434 0.545 2.663 2.339 5 3.781 c 0.955 0.59 3.191 2.287 5.437 3.375 c 0.134 0 1.526 0.648 3.281 1.282 c 2.402 1.164 3.423 1.317 5.782 2 c 0.895 0.207 2.608 0.863 3.25 1.03 c 0.64 0.168 1.587 0.49 2.75 0.876 c 1.628 0.386 2.498 0.586 4.093 1.219 c 1.745 0.403 3.235 1.036 3.844 1.093 c 0.609 0.058 1.693 0.294 2.438 0.532 c 0.744 0.237 2.418 0.625 3.437 0.718 c 1.019 0.275 2.5 0.532 2.938 0.594 c 0.438 0.062 1.418 0.208 2.187 0.344 c 1.826 0.32 7.526 0.914 10.531 1.094 c 1.991 0.118 6.543 0.412 16.281 0.53 c 3.435 0.043 6.977 -0.052 8.594 -0.218 c 1.51 -0.155 2.965 -0.251 3.25 -0.219 c 0.286 0.033 0.768 -0.026 1.063 -0.125 c 0.323 -0.108 6.36 -0.848 6.969 -0.906 c 0.608 -0.058 8.953 -2.39 9.156 -2.562 c 0.202 -0.173 3.886 -1.449 4.781 -1.657 c 2.937 -0.682 2.993 -1.35 5.781 -2 c 1.308 -0.633 2.491 -1.156 2.625 -1.156 c 0.134 0 1.044 -0.504 2 -1.094 c 2.337 -1.442 8.66 -5.642 9.094 -6.187 c 0.435 -0.545 1.002 -1.183 1.281 -1.406 c 0.616 -0.494 1.5 -2 2.063 -3.5 c 0.228 -0.61 1.024 -2.461 1.312 -6.47 c 0.134 -1.859 0.474 -5.587 0.781 -8.28 c 0.308 -2.694 0.642 -6.059 0.72 -7.47 c 0.076 -1.41 0.229 -3.198 0.343 -3.968 c 0.114 -0.77 0.268 -1.86 0.344 -2.437 c 0.396 -3.017 1.426 -8.35 2.312 -11.907 c 2.614 -10.487 3.788 -14.279 5.656 -18.406 c 0.32 -0.705 0.59 -1.403 0.594 -1.531 c 0.005 -0.128 0.167 -0.501 0.344 -0.844 c 0.177 -0.343 0.79 -1.98 1.375 -3.625 s 1.178 -3.242 1.313 -3.562 c 0.134 -0.321 0.407 -1.048 0.593 -1.625 c 0.187 -0.578 0.418 -1.275 0.531 -1.532 c 0.114 -0.256 0.682 -1.71 1.282 -3.25 c 0.6 -1.539 1.542 -3.6 2.062 -4.562 c 0.52 -0.962 1.343 -2.576 1.844 -3.594 c 0.5 -1.018 1.157 -2.16 1.469 -2.531 c 0.311 -0.37 0.562 -0.894 0.562 -1.188 c 0 -0.513 0.918 -1.201 2.063 -1.843 c 0.504 -0.472 0.74 -0.63 1 -1.22 c 0.379 -0.857 0.474 -1.377 0.375 -2.624 c -0.132 -1.646 -0.906 -4.174 -1.844 -6.031 c -1.81 -3.585 -4.454 -8.372 -4.938 -8.938 c -0.195 -0.228 -0.427 0.74 -0.125 1.344 c 0.176 0.35 1.1 2.03 2.032 3.719 c 2.076 3.763 2.304 4.366 2.906 5.875 c 0.163 0.4 1.09 3.643 1.094 4.812 c 0.002 0.698 -0.175 1.159 -0.688 1.781 c -0.965 1.17 -1.816 1.486 -3.125 1.157 c -1.456 -0.367 -4.092 -0.346 -5.25 0.062 c -1.28 0.452 -1.673 0.788 -3.812 3.188 c -0.989 1.108 -2.149 2.182 -2.563 2.375 c -0.592 0.275 -1.447 0.33 -3.969 0.25 c -3.3 -0.105 -4.189 0.014 -6.375 0.875 c -1.197 0.47 -2.098 1.348 -4.28 4.156 c -1.36 1.748 -2.062 1.938 -7.532 1.937 c -4.487 0 -7.64 0.353 -8.156 0.719 c -0.75 0.293 -1.419 0.938 -2.313 1.813 c -0.894 0.874 -2.07 1.914 -2.625 2.312 c -0.962 0.69 -1.092 0.746 -2.844 0.656 c -1.021 -0.052 -3.068 -0.433 -4.624 -0.843 c -3.207 -0.847 -5.529 -0.977 -7.032 -0.375 c -0.515 0.206 -0.53 0.254 -1.094 0.593 c -0.981 0.662 -1.55 0.985 -2.906 1.938 c -2.709 1.904 -3.624 2.176 -6.031 1.875 c -1.072 -0.134 -1.52 -0.34 -2.844 -1.406 c -0.862 -0.695 -1.904 -1.446 -2.344 -1.657 c -0.747 -0.358 -0.894 -0.358 -2 0.032 c -0.65 0.229 -2.066 0.955 -3.156 1.593 c -1.09 0.639 -2.378 1.293 -2.875 1.469 c -0.497 0.176 -1.407 0.321 -2 0.313 c -1.443 -0.022 -4.298 -1.296 -5.969 -2.657 c -1.76 -1.434 -2.727 -1.805 -4.312 -1.687 c -1.866 0.138 -3.902 0.589 -4.844 1.094 c -0.452 0.242 -1.41 0.548 -2.125 0.687 c -0.715 0.14 -1.569 0.364 -1.906 0.469 c -0.337 0.104 -1.21 0.083 -1.938 -0.031 c -1.504 -0.236 -2.413 -0.918 -3.937 -2.97 c -1.884 -2.534 -4.5 -2.976 -9.625 -1.624 c -1.557 0.41 -3.603 0.791 -4.625 0.844 c -1.752 0.089 -1.882 0.065 -2.844 -0.625 c -0.554 -0.399 -1.73 -1.438 -2.625 -2.313 c -0.894 -0.875 -1.918 -1.712 -2.281 -1.844 c -1.449 -0.527 -3.67 -0.719 -8.156 -0.718 c -5.47 0 -6.204 -0.19 -7.563 -1.938 c -2.183 -2.808 -3.084 -3.654 -4.281 -4.125 c -2.186 -0.86 -3.074 -1.01 -6.375 -0.906 c -2.521 0.08 -3.376 0.056 -3.969 -0.219 c -0.414 -0.192 -1.542 -1.266 -2.531 -2.375 c -2.14 -2.4 -2.564 -2.736 -3.844 -3.187 c -1.157 -0.409 -3.793 -0.46 -5.25 -0.094 c -1.309 0.33 -2.16 0.014 -3.125 -1.156 c -0.513 -0.623 -0.69 -1.084 -0.687 -1.782 c 0.003 -1.262 0.495 -3.008 1.281 -4.562 c 0.356 -0.706 0.72 -1.433 0.813 -1.625 c 0.092 -0.193 1.387 -1.817 1.656 -2.125 c 0.268 -0.308 0.876 -1.241 1.375 -2.094 c 0.499 -0.853 1.204 -1.792 1.562 -2.094 c 0.359 -0.301 1.841 -2.376 2.688 -3.343 l 0.625 -0.72 s 0.118 -1.637 0.094 -1.5 z m -4.094 21.781 c 1.875 -0.13 3.917 0.824 6.406 3.906 c 0.473 0.587 1.352 1.35 1.969 1.719 c 1.118 0.67 1.137 0.688 5.094 0.688 h 3.968 l 1.563 0.78 c 0.991 0.488 1.764 1.048 2.094 1.532 c 1.016 1.495 3.133 3.587 4.156 4.125 c 0.989 0.52 1.26 0.566 6.156 0.594 c 7.039 0.04 7.423 0.12 10.219 2.781 c 2.752 2.62 3.57 2.987 6.187 2.781 c 1.091 -0.086 2.14 -0.237 2.344 -0.343 c 0.93 -0.489 4.682 -1.225 6.188 -1.22 c 2.212 0.01 3.115 0.42 4.406 2.063 c 0.581 0.74 1.637 1.777 2.312 2.282 c 1.172 0.874 1.294 0.898 2.969 0.906 c 1.93 0.008 4.41 -0.388 5.344 -0.875 c 1.197 -0.625 2.494 -1.054 3.75 -1.219 c 2.387 -0.314 2.96 -0.123 5.25 1.656 c 0.762 0.592 2.155 1.445 3.125 1.907 c 1.686 0.802 1.857 0.832 3.531 0.687 c 1.81 -0.157 4.35 -1.188 6.375 -2.562 c 1.449 -0.983 2.426 -1.161 3.344 -0.594 c 0.425 0.263 0.33 0.303 0.781 0.656 c 0.338 0.331 1.986 1.593 3.094 1.969 c 1.696 0.574 2.722 0.643 4.094 0.25 c 1.285 -0.369 1.749 -0.635 5.156 -2.875 c 2.677 -1.76 3.123 -1.931 5.031 -1.938 c 1.506 -0.005 5.258 0.907 6.187 1.25 c 0.204 0.107 1.253 0.258 2.344 0.344 c 2.618 0.206 3.435 -0.162 6.188 -2.781 c 2.796 -2.661 3.18 -2.773 10.218 -2.813 c 4.9 -0.027 5.165 -0.04 6.157 -0.562 c 1.083 -0.57 2.857 -2.32 3.906 -3.844 c 1.34 -1.948 3.782 -2.67 8.563 -2.562 c 2.99 0.066 3.046 0.05 4.28 -0.657 c 0.685 -0.392 1.616 -1.189 2.094 -1.781 c 1.438 -1.78 2.691 -2.951 3.032 -3.219 c 1.105 -0.703 1.749 -0.615 3.281 -0.562 c 2.125 0.072 2.619 0.474 2.469 1.062 c -0.124 0.43 -1.129 2.337 -2.375 4.313 c -1.122 1.777 -3.22 6.335 -4.125 8.969 c -0.353 1.025 -0.77 2.177 -0.938 2.562 c -0.167 0.385 -0.836 2.203 -1.5 4.063 c -1.103 3.09 -2.152 5.784 -2.937 7.593 c -1.385 3.193 -2.227 5.591 -3.375 9.5 c -1.235 4.204 -3.07 11.807 -3.969 16.469 c -0.943 4.888 -0.9 4.577 -1.156 7.531 c -0.762 8.803 -0.959 10.92 -1.157 12.188 a 49.37 49.37 0 0 0 -0.375 3.156 c -0.476 6.163 -1.725 10.583 -2.625 11.844 c -1.152 1.615 -4.093 3.928 -6.03 5.375 c -0.196 -0.956 0.92 -12.506 1.155 -14.438 c 0.337 -1.896 1.24 -8.705 1.657 -12.5 c 0.122 -1.115 0.298 -2.531 0.406 -3.156 c 0.108 -0.625 0.329 -1.987 0.469 -3.031 c 0.14 -1.044 0.4 -2.827 0.593 -3.938 c 0.194 -1.11 0.449 -2.641 0.563 -3.406 c 0.115 -0.765 0.368 -2.24 0.563 -3.281 c 0.355 -1.904 0.463 -2.39 1.03 -5.156 c 0.171 -0.832 0.492 -2.533 0.72 -3.782 c 0.843 -4.624 2.706 -12.008 3.906 -15.437 c 0.36 -1.03 1.005 -2.945 1.437 -4.25 c 0.862 -2.603 1.124 -3.297 2.625 -7.344 c 0.56 -1.507 1.079 -3.014 1.156 -3.344 c 0.078 -0.33 1.138 -2.77 1.375 -3.687 c 0.042 -0.159 -0.365 -1.435 -1.78 2.344 c -1.475 3.933 -4.794 13.321 -5.407 15.25 c -0.234 0.735 -0.724 2.166 -1.063 3.187 a 53.718 53.718 0 0 0 -1.062 3.75 c -1.073 4.542 -1.746 7.537 -1.938 8.594 c -0.468 2.588 -0.91 5.071 -1.406 7.687 a 131.33 131.33 0 0 0 -0.781 4.532 c -0.14 0.973 -0.404 2.646 -0.594 3.687 c -0.302 1.654 -0.711 4.178 -1.437 9.344 a 316.26 316.26 0 0 0 -0.969 7.719 c -0.177 1.533 -0.678 4.381 -0.813 5.406 c -0.134 1.024 -0.501 4.492 -0.656 5.062 c -0.271 2.845 -0.308 1.321 -0.531 4.657 c -0.222 3.319 -0.463 6.37 -0.531 6.5 v 0.03 c -0.094 0.064 -0.535 0.394 -0.563 0.407 c -0.352 0.16 -1.368 0.79 -2.25 1.375 c -0.881 0.586 -2.033 1.194 -2.562 1.375 c -0.53 0.18 -1.565 0.603 -2.313 0.938 c -0.864 0.386 -2.96 1.032 -3 0.968 c -0.284 -0.459 0.353 -12.503 0.5 -14.437 c 0.247 -1.864 0.825 -8.533 1.063 -12.25 c 0.07 -1.093 0.17 -2.511 0.25 -3.125 c 0.079 -0.614 0.221 -1.945 0.312 -2.969 c 0.091 -1.024 0.297 -2.752 0.438 -3.844 c 0.14 -1.091 0.328 -2.593 0.406 -3.343 c 0.078 -0.751 0.261 -2.196 0.406 -3.22 c 0.266 -1.872 0.314 -2.37 0.75 -5.093 c 0.131 -0.818 0.394 -2.49 0.563 -3.719 c 0.625 -4.546 2.15 -11.85 3.187 -15.25 c 0.311 -1.02 0.849 -2.895 1.219 -4.187 c 0.739 -2.578 0.971 -3.296 2.281 -7.313 c 0.488 -1.495 0.938 -2.987 1 -3.312 c 0.062 -0.325 1.025 -2.72 1.219 -3.625 c 0.034 -0.157 -0.45 -1.407 -1.688 2.344 c -1.287 3.904 -4.165 13.216 -4.687 15.125 c -0.199 0.727 -0.617 2.176 -0.906 3.187 a 50.9 50.9 0 0 0 -0.875 3.688 c -0.859 4.477 -1.39 7.429 -1.532 8.468 c -0.346 2.544 -0.69 4.99 -1.062 7.563 c -0.217 1.5 -0.469 3.513 -0.563 4.469 c -0.093 0.955 -0.296 2.57 -0.437 3.593 c -0.224 1.626 -0.486 4.12 -0.969 9.188 c -0.215 2.258 -0.392 4.678 -0.594 7.562 c -0.104 1.503 -0.476 4.308 -0.562 5.313 c -0.086 1.005 -0.31 4.406 -0.438 4.969 c -0.137 2.784 -0.214 1.27 -0.28 4.53 c -0.065 3.181 -0.187 6.013 -0.25 6.25 c -0.013 0.004 -0.052 0.029 -0.063 0.032 c -0.742 0.223 -2.57 0.842 -4.094 1.344 c -1.525 0.501 -2.92 0.906 -3.094 0.906 c -0.184 0 -1.375 0.344 -1.375 0.344 l -2.218 0.594 c -0.293 0.081 -0.652 0.21 -1 0.312 c -0.31 -0.573 -0.457 -12.093 -0.438 -13.969 c 0.123 -1.826 0.227 -8.342 0.219 -11.968 c -0.003 -1.067 0.055 -2.43 0.094 -3.032 c 0.038 -0.601 0.07 -1.905 0.093 -2.906 c 0.023 -1 0.088 -2.712 0.156 -3.781 c 0.07 -1.07 0.16 -2.547 0.188 -3.281 c 0.029 -0.735 0.11 -2.153 0.188 -3.157 c 0.14 -1.836 0.181 -2.294 0.437 -4.968 c 0.077 -0.804 0.225 -2.453 0.313 -3.657 c 0.323 -4.456 1.345 -11.629 2.156 -15 c 0.243 -1.011 0.684 -2.907 0.968 -4.187 c 0.567 -2.553 0.74 -3.23 1.782 -7.219 c 0.388 -1.485 0.74 -2.961 0.781 -3.281 c 0.04 -0.32 0.835 -2.734 0.969 -3.625 c 0.023 -0.154 -0.514 -1.318 -1.5 2.406 c -1.027 3.878 -3.324 13.112 -3.719 15 c -0.15 0.72 -0.434 2.124 -0.656 3.125 c -0.222 1.001 -0.527 2.642 -0.656 3.656 c -0.561 4.406 -0.897 7.294 -0.97 8.313 a 874.892 874.892 0 0 1 -0.562 7.406 c -0.117 1.472 -0.22 3.44 -0.25 4.375 c -0.03 0.934 -0.114 2.528 -0.187 3.531 c -0.116 1.594 -0.228 4.046 -0.375 9 a 276.9 276.9 0 0 0 -0.125 7.375 c -0.006 1.467 -0.168 4.206 -0.188 5.188 c -0.02 0.981 -0.035 4.32 -0.125 4.875 c 0.047 2.713 -0.118 1.267 0.031 4.437 c 0.137 2.9 0.187 5.166 0.157 5.688 c -0.712 0.213 -1.456 0.432 -1.969 0.594 c -1.24 0.39 -2.73 0.653 -3.969 0.718 c -1.09 0.058 -3.181 0.284 -4.656 0.469 c -0.418 0.053 -1.054 0.047 -1.594 0.094 c -0.324 -0.545 -1.245 -12.604 -1.344 -14.438 c 0.002 -1.791 -0.3 -8.146 -0.53 -11.687 a 61.21 61.21 0 0 1 -0.126 -2.969 a 88.635 88.635 0 0 0 -0.062 -2.844 c -0.04 -0.978 -0.092 -2.638 -0.094 -3.687 a 174.63 174.63 0 0 0 -0.031 -3.219 a 111.8 111.8 0 0 1 0 -3.094 c 0.018 -1.802 0.02 -2.278 0.094 -4.906 c 0.021 -0.79 0.024 -2.413 0.03 -3.594 c 0.027 -4.373 0.58 -11.436 1.126 -14.781 c 0.164 -1.003 0.44 -2.888 0.625 -4.156 c 0.37 -2.53 0.495 -3.194 1.219 -7.156 c 0.269 -1.476 0.482 -2.936 0.5 -3.25 c 0.017 -0.315 0.617 -2.746 0.687 -3.625 c 0.012 -0.153 -0.562 -1.233 -1.25 2.468 c -0.716 3.853 -2.28 13.005 -2.531 14.875 c -0.096 0.713 -0.293 2.102 -0.438 3.094 c -0.145 0.992 -0.286 2.626 -0.344 3.625 c -0.25 4.339 -0.401 7.188 -0.406 8.188 a 900.47 900.47 0 0 1 -0.062 7.28 c -0.019 1.446 0.002 3.368 0.031 4.282 c 0.03 0.915 0.037 2.453 0.031 3.438 c -0.01 1.563 0.05 3.964 0.219 8.812 c 0.075 2.16 0.18 4.47 0.344 7.219 c 0.085 1.432 0.082 4.134 0.125 5.094 c 0.042 0.96 0.268 4.201 0.219 4.75 c 0.21 2.647 -0.054 1.225 0.28 4.312 c 0.332 3.055 0.57 5.872 0.532 6.031 c -3.418 0.24 -7.838 0.466 -9.094 0.469 c -1.635 0.003 -6.676 -0.09 -7.125 -0.094 h -0.812 l 0.031 -3.781 c 0.037 -2.479 0.22 -9.202 0.188 -21.031 c -0.042 -15.292 -0.049 -32.686 -0.032 -43.25 c 0.007 -3.976 -0.045 -9.16 -0.125 -11.5 c -0.132 -3.91 -0.203 -4.25 -0.594 -4.25 c -0.409 0 -0.399 1.26 -0.406 33.875 c -0.008 39.752 -0.12 44.071 -0.156 46.156 l -0.063 3.781 l -7.28 -0.531 c -2.396 -0.16 -5.9 -0.653 -9.032 -1.125 c 0.01 -0.735 0.118 -2.638 0.344 -5.375 c 0.262 -3.182 0.013 -1.742 0.156 -4.469 c -0.07 -0.561 0.047 -3.918 0.063 -4.906 c 0.015 -0.988 -0.047 -3.744 0 -5.219 c 0.09 -2.83 0.142 -5.216 0.156 -7.437 c 0.03 -4.986 -0.004 -7.425 -0.063 -9.031 a 109.171 109.171 0 0 1 -0.062 -3.563 c 0.003 -0.94 -0.03 -2.922 -0.094 -4.406 c -0.111 -2.545 -0.224 -4.955 -0.313 -7.469 c -0.036 -1.027 -0.253 -3.926 -0.656 -8.375 c -0.093 -1.025 -0.345 -2.704 -0.531 -3.719 a 312.367 312.367 0 0 1 -0.563 -3.187 c -0.327 -1.913 -2.268 -11.253 -3.156 -15.188 c -0.853 -3.779 -1.424 -2.624 -1.406 -2.468 c 0.102 0.9 0.815 3.333 0.844 3.656 c 0.029 0.323 0.321 1.837 0.656 3.344 c 0.899 4.046 1.025 4.725 1.5 7.312 c 0.238 1.297 0.606 3.225 0.813 4.25 c 0.69 3.418 1.492 10.664 1.656 15.156 c 0.044 1.214 0.108 2.877 0.156 3.688 c 0.16 2.698 0.175 3.18 0.25 5.031 c 0.041 1.011 0.091 2.417 0.094 3.156 c 0.002 0.74 0.032 2.235 0.062 3.313 c 0.03 1.077 0.044 2.774 0.031 3.781 a 97.079 97.079 0 0 0 0 2.938 c 0.017 0.606 0.01 1.99 -0.03 3.062 c -0.139 3.646 -0.246 10.19 -0.188 12.031 c -0.048 1.874 -0.607 13.232 -0.938 13.938 c -2.993 -0.47 -5.64 -0.94 -5.969 -1.031 a 94.533 94.533 0 0 0 -2.406 -0.5 c -1.377 -0.21 -1.5 -0.368 -2.5 -0.625 c -0.812 -0.252 -2.087 -0.636 -3.375 -1.032 c -0.05 -0.185 0.01 -3.033 0.157 -6.156 c 0.149 -3.17 -0.016 -1.724 0.03 -4.437 c -0.09 -0.556 -0.105 -3.863 -0.124 -4.844 c -0.02 -0.982 -0.182 -3.721 -0.188 -5.188 c -0.01 -2.814 -0.06 -5.199 -0.125 -7.406 c -0.147 -4.954 -0.227 -7.375 -0.343 -8.969 a 107.492 107.492 0 0 1 -0.188 -3.531 c -0.03 -0.934 -0.164 -2.903 -0.281 -4.375 a 874.312 874.312 0 0 1 -0.563 -7.406 c -0.072 -1.019 -0.408 -3.907 -0.968 -8.313 a 48.813 48.813 0 0 0 -0.626 -3.656 a 338.985 338.985 0 0 1 -0.687 -3.156 c -0.395 -1.889 -2.66 -11.091 -3.688 -14.969 c -0.986 -3.724 -1.523 -2.592 -1.5 -2.437 c 0.135 0.89 0.898 3.305 0.938 3.625 c 0.04 0.32 0.393 1.796 0.781 3.28 c 1.042 3.989 1.215 4.698 1.782 7.25 c 0.284 1.28 0.725 3.146 0.968 4.157 c 0.81 3.371 1.833 10.544 2.157 15 c 0.087 1.204 0.235 2.853 0.312 3.656 c 0.256 2.675 0.297 3.164 0.438 5 c 0.077 1.004 0.158 2.422 0.187 3.157 c 0.029 0.734 0.119 2.211 0.188 3.28 c 0.068 1.07 0.133 2.75 0.156 3.75 c 0.023 1.001 0.087 2.337 0.125 2.938 c 0.038 0.602 0.065 1.965 0.062 3.032 c -0.008 3.626 0.096 10.11 0.219 11.937 c 0.019 1.86 -0.194 13.61 -0.5 14.375 l -0.625 -0.187 l -1.375 -0.344 c -0.882 0 -3.006 -0.718 -4.531 -1.219 a 220.162 220.162 0 0 0 -4.125 -1.312 c -0.303 -0.091 -1.164 -0.45 -1.844 -0.688 c -0.065 -0.388 -0.187 -2.947 -0.25 -6.031 c -0.066 -3.26 -0.144 -1.778 -0.281 -4.563 c -0.128 -0.563 -0.352 -3.964 -0.438 -4.968 c -0.086 -1.005 -0.457 -3.81 -0.562 -5.313 c -0.202 -2.884 -0.379 -5.304 -0.594 -7.562 c -0.483 -5.068 -0.745 -7.562 -0.969 -9.188 a 113.377 113.377 0 0 1 -0.437 -3.594 c -0.094 -0.955 -0.346 -2.968 -0.563 -4.468 a 923.484 923.484 0 0 1 -1.062 -7.563 c -0.142 -1.04 -0.673 -3.99 -1.532 -8.469 a 50.899 50.899 0 0 0 -0.874 -3.687 c -0.29 -1.012 -0.708 -2.46 -0.907 -3.188 c -0.522 -1.909 -3.4 -11.189 -4.687 -15.093 c -1.237 -3.751 -1.721 -2.532 -1.688 -2.375 c 0.195 0.904 1.157 3.33 1.219 3.656 c 0.062 0.325 0.512 1.786 1 3.281 c 1.31 4.017 1.543 4.734 2.281 7.313 c 0.37 1.292 0.908 3.167 1.219 4.187 c 1.037 3.4 2.562 10.704 3.188 15.25 c 0.168 1.228 0.43 2.9 0.562 3.719 c 0.437 2.724 0.516 3.221 0.781 5.094 c 0.145 1.023 0.328 2.467 0.407 3.218 c 0.078 0.751 0.234 2.252 0.374 3.344 c 0.141 1.092 0.347 2.82 0.438 3.844 c 0.09 1.024 0.234 2.355 0.313 2.969 c 0.078 0.614 0.18 2.032 0.25 3.125 c 0.237 3.717 0.815 10.386 1.062 12.25 c 0.147 1.925 0.775 13.818 0.5 14.375 c -0.56 -0.211 -1.013 -0.344 -1.438 -0.532 c -0.876 -0.388 -1.866 -0.797 -2.187 -0.875 c -0.32 -0.078 -1.255 -0.575 -2.094 -1.125 a 39.268 39.268 0 0 0 -2.375 -1.437 c -0.198 -0.106 -1.222 -0.902 -1.906 -1.406 c -0.098 -0.666 -0.302 -2.812 -0.5 -5.75 c -0.223 -3.322 -0.228 -1.792 -0.5 -4.625 c -0.154 -0.568 -0.553 -4.043 -0.688 -5.063 c -0.134 -1.02 -0.635 -3.848 -0.812 -5.375 c -0.34 -2.931 -0.645 -5.427 -0.969 -7.719 c -0.726 -5.144 -1.104 -7.666 -1.406 -9.312 c -0.19 -1.037 -0.485 -2.655 -0.625 -3.625 c -0.14 -0.97 -0.461 -3.012 -0.75 -4.531 c -0.495 -2.606 -0.969 -5.08 -1.438 -7.657 c -0.191 -1.053 -0.864 -4.008 -1.937 -8.531 a 53.734 53.734 0 0 0 -1.063 -3.75 a 321.803 321.803 0 0 1 -1.03 -3.187 c -0.614 -1.92 -3.964 -11.27 -5.438 -15.188 c -1.416 -3.762 -1.823 -2.47 -1.781 -2.312 c 0.237 0.912 1.297 3.327 1.375 3.656 c 0.077 0.328 0.597 1.812 1.156 3.312 c 1.501 4.03 1.763 4.72 2.625 7.313 c 0.432 1.3 1.077 3.225 1.437 4.25 c 1.2 3.415 3.063 10.77 3.907 15.375 c 0.227 1.243 0.58 2.922 0.75 3.75 c 0.567 2.756 0.644 3.26 1 5.156 c 0.194 1.036 0.447 2.52 0.562 3.281 c 0.114 0.762 0.37 2.27 0.563 3.375 c 0.193 1.106 0.484 2.867 0.625 3.907 c 0.14 1.04 0.329 2.409 0.437 3.03 c 0.108 0.623 0.284 2.046 0.406 3.157 c 0.417 3.78 1.32 10.55 1.657 12.438 c 0.223 1.827 1.184 11.77 1.124 13.656 c -1.942 -1.53 -4.03 -3.324 -4.937 -4.594 c -0.887 -1.244 -2.148 -5.681 -2.625 -11.844 a 49.364 49.364 0 0 0 -0.375 -3.156 c -0.198 -1.268 -0.395 -3.385 -1.156 -12.187 c -0.255 -2.945 -0.216 -2.619 -1.156 -7.532 c -0.61 -3.181 -2.247 -10.305 -2.813 -12.218 c -0.114 -0.385 -0.471 -1.75 -0.813 -3.032 a 74.82 74.82 0 0 0 -3.718 -10.718 c -0.785 -1.81 -1.835 -4.472 -2.938 -7.563 c -0.664 -1.86 -1.332 -3.709 -1.5 -4.094 c -0.167 -0.384 -0.585 -1.536 -0.937 -2.562 c -0.906 -2.634 -3.004 -7.191 -4.125 -8.969 c -1.247 -1.976 -2.183 -3.808 -2.5 -4.625 c -0.28 -0.894 1.328 -0.798 2.5 -0.875 z" style="stroke: none; stroke-width: 1; stroke-dasharray: none; stroke-linecap: butt; stroke-linejoin: miter; stroke-miterlimit: 10; fill: #835e36; fill-rule: nonzero; opacity: 1;" transform="" stroke-linecap="round" />
  <path d="M 113.09 90.426 c 0 2.67 -10.154 4.837 -22.665 4.837 c -12.512 0 -22.666 -2.167 -22.666 -4.837 s 10.154 -4.836 22.666 -4.836 c 12.468 0 22.598 2.15 22.666 4.81" style="stroke: none; stroke-width: 2.09; stroke-dasharray: none; stroke-linecap: round; stroke-linejoin: round; stroke-miterlimit: 10; fill: #a8a8bd; fill-rule: nonzero; opacity: 1;" transform="" stroke-linecap="round" />
  <path d="M 94.97 84.46 c -5.925 -0.035 -11.888 0.201 -14.63 0.718 c -0.62 0.117 -9.965 1.687 -11.898 2.031 c -5.198 0.927 -8.655 1.806 -14.66 3.813 c -9.084 3.034 -14.328 5.609 -20.5 10.03 c -2.612 1.872 -9.253 8.203 -11.24 10.72 c -0.758 0.961 -4.195 5.436 -4.614 6 c -0.42 0.563 -1.454 1.944 -2.292 3.062 c -2.27 3.031 -3.313 6.54 -3.746 8.393 c -0.323 2.628 -0.582 3.528 -0.712 6.732 c 0.015 2.14 1.077 3.494 3.297 4.219 c 1.052 0.344 2.648 -0.072 4.332 -1.156 c 0.644 -0.415 2.308 -1.414 3.704 -2.22 c 2.428 -1.4 3.793 -2.43 5.87 -4.343 c 0.522 -0.48 1.522 -1.253 2.198 -1.719 c 0.954 -0.657 1.976 -1.599 3.265 -2.562 c 4.79 -3.578 11.545 -5.646 13.813 -4.25 c 1.238 0.761 1.259 1.008 0.503 3.344 c -1.314 4.055 -0.954 6.868 0.726 8.38 c 1.585 0.987 4.187 0.375 5.333 -0.005 c 1.681 -0.558 2.882 -1.152 9.983 -5.032 c 1.395 -0.762 3.495 -1.713 4.677 -2.093 c 1.856 -0.598 6.04 -1.552 9.795 0.093 c 4.116 1.713 4.618 2.174 7.158 6.813 c 1.092 1.995 3.107 4.08 5.18 5.906 c 1.917 1.694 4.565 1.893 7.66 0.594 c 2.004 -0.841 3.19 -1.655 4.709 -3.313 c 3.85 -5.213 11.67 -7.296 13.749 -6.632 c 2.871 0.417 5.034 1.313 10.486 5.039 c 0.59 0.334 4.121 3.115 5.023 3.687 c 0.902 0.572 6.25 4.013 7 4.406 c 2.183 1.143 5.35 0.345 6.625 -0.843 c 1.374 -2.019 1.483 -1.629 1.727 -5.532 c 0.328 -5.276 0.39 -5.508 0.973 -6.125 c 2.22 -1.865 5.051 -0.196 5.648 0.023 c 2.507 1.072 10.873 5.87 11.775 6.509 c 0.902 0.638 5.127 2.537 5.965 2.75 c 1.642 0.417 3.141 0.417 3.924 0 c 1.474 -0.946 2.053 -2.177 2.166 -2.563 c 0.178 -0.486 0.58 -1.968 0.722 -3.187 c 0.458 -3.925 0 -8.294 -1.099 -10.438 c -0.177 -0.346 -3.043 -6.114 -4.52 -7.844 c -0.608 -0.71 -4.737 -5.617 -6.561 -6.968 c -0.96 -0.711 -2.935 -2.435 -4.364 -3.813 c -1.429 -1.378 -3.072 -2.855 -3.673 -3.281 c -0.601 -0.426 -2.28 -1.625 -3.736 -2.656 c -3.614 -2.56 -4.358 -3 -5.714 -3.594 c -0.644 -0.283 -2.44 -1.13 -3.987 -1.875 c -5.626 -2.714 -9.252 -4.29 -11.333 -4.875 a 32.976 32.976 0 0 1 -2.228 -0.719 c -1.722 -0.646 -7.083 -2.013 -8.57 -2.187 c -0.71 -0.083 -12.725 -2.382 -13.563 -2.563 c -2.535 -0.547 -8.422 -0.84 -14.347 -0.875 z m -4.176 1.437 c 3.208 -0.016 11.562 0.266 13.939 0.468 c 3.046 0.26 7.537 0.853 9.606 1.282 c 0.902 0.187 6.601 1.095 7.754 1.468 c 2.833 0.919 7.216 1.637 7.974 1.907 s 2.387 0.824 3.61 1.218 c 6.027 1.943 19.1 8.599 22.227 11.313 c 0.58 0.503 1.494 1.227 2.01 1.594 c 1.318 0.938 5.632 5.36 6.215 5.937 c 0.583 0.578 1.75 1.578 2.606 2.25 c 1.388 1.09 4.841 5.6 5.807 6.969 c 2.907 4.114 3.785 5.758 4.458 8.594 c 0.42 1.764 0.456 2.555 0.346 5 c -0.072 1.591 -0.183 4.303 -1.673 6.083 c -1.035 0.809 -2.14 0.582 -3.319 0.26 c -2.956 -0.805 -5.715 -2.525 -5.965 -2.75 c -0.608 -0.548 -10.602 -5.647 -10.925 -5.812 c -0.322 -0.166 -3.772 -1.52 -4.928 -1.438 c -1.578 0.114 -3.05 0.953 -3.61 2.032 c -0.39 0.75 -0.848 4.58 -0.848 7.156 c 0 2.177 -0.942 3.173 -2.278 4.263 c -0.95 0.775 -3.24 0.52 -5.194 -0.826 c -1.079 -0.743 -4.18 -2.756 -5.117 -3.375 c -0.936 -0.618 -2.515 -1.6 -3.17 -2.187 c -5.894 -4.792 -12.471 -7.19 -15.125 -7.069 c -5.049 0.267 -10.187 3.058 -13.244 7.02 c -1.706 2.504 -6.142 4.14 -8.128 3.869 c -2.537 -0.481 -6.308 -4.792 -7.36 -6.851 c -2.156 -4.222 -4.15 -5.96 -8.665 -7.47 c -2.757 -0.92 -6.341 -0.842 -9.606 0.22 c -1.021 0.332 -3 1.055 -3.924 1.593 c -0.925 0.538 -2.548 1.375 -3.58 1.875 c -1.03 0.5 -5.67 3.158 -7.408 3.782 c -1.773 0.636 -3.374 0.674 -4.175 0.062 c -0.755 -0.587 -0.942 -1.922 -0.942 -2.969 c 0 -0.972 0.569 -3.168 1.162 -4.468 c 0.643 -1.412 0.617 -2.34 -0.126 -3.22 c -1.366 -1.615 -3.435 -2.054 -6.279 -1.312 c -0.768 0.2 -6.314 2.045 -8.288 3.22 c -0.813 0.483 -2.03 1.314 -2.7 1.874 a 92.412 92.412 0 0 1 -2.856 2.281 c -0.902 0.685 -2.08 1.663 -2.606 2.157 c -0.526 0.494 -4.135 3.126 -4.709 3.562 c -0.573 0.436 -5.154 2.857 -5.808 3.063 c -1.134 0.357 -2.567 0.282 -3.641 -0.994 c -0.742 -1.745 -0.207 -4.427 0.028 -6.198 c 0.454 -3.507 0.647 -3.861 1.57 -6.073 c 0.587 -1.151 4 -6.26 4.963 -7.235 c 1.134 -1.15 3.1 -4.304 3.547 -4.657 c 1.978 -2.728 6.821 -7.193 8.288 -8.468 c 3.4 -2.958 7.94 -5.992 11.836 -7.938 c 2.664 -1.33 7.167 -3.23 9.135 -3.844 c 0.966 -0.3 3.128 -0.986 4.803 -1.53 c 4.16 -1.354 6.406 -1.881 14.159 -3.376 c 4.397 -0.848 9.125 -1.41 9.512 -1.469 c 2.275 -0.344 8.356 -0.832 10.642 -0.843 z" style="stroke: none; stroke-width: 1; stroke-dasharray: none; stroke-linecap: butt; stroke-linejoin: miter; stroke-miterlimit: 10; fill: #c3c3d2; fill-rule: nonzero; opacity: 1;" transform="" stroke-linecap="round" />
  <path d="M 113.12 76.55 c 0 12.411 -9.935 22.484 -22.176 22.484 c -12.24 0 -22.176 -10.073 -22.176 -22.484 c 0 -12.41 9.935 -22.483 22.176 -22.483 c 12.241 0 22.176 10.072 22.176 22.483 z" style="stroke: none; stroke-width: 3.75; stroke-dasharray: none; stroke-linecap: round; stroke-linejoin: round; stroke-miterlimit: 10; fill: #a4101b; fill-rule: nonzero; opacity: 1;" transform="" stroke-linecap="round" />
  <path d="M 90.956 53.41 c -12.557 0 -22.76 10.343 -22.76 23.074 c 0 12.731 10.203 23.076 22.76 23.076 c 12.556 0 22.76 -10.345 22.76 -23.076 c 0 -12.73 -10.204 -23.075 -22.76 -23.075 z m 0 1.182 c 11.925 0 21.592 9.802 21.592 21.892 c 0 12.091 -9.667 21.892 -21.592 21.892 c -11.926 0 -21.593 -9.8 -21.593 -21.892 c 0 -12.09 9.667 -21.892 21.593 -21.892 z" style="stroke: none; stroke-width: 3.75; stroke-dasharray: none; stroke-linecap: round; stroke-linejoin: round; stroke-miterlimit: 10; fill: #390308; fill-rule: nonzero; opacity: 1;" transform="" stroke-linecap="round" />
  <path d="M 90.928 55.79 c -3.624 -0.077 -7.53 0.667 -10.261 3.218 c -2.36 2.915 -0.197 8.052 3.62 8.19 c 3.867 0.343 7.58 -1.15 11.411 -1.395 c 3.34 -0.338 6.848 0.462 9.465 2.634 c 3.232 2.57 4.938 6.696 4.976 10.775 c 0.061 1.525 -0.043 3.054 -0.245 4.566 c 1.175 -1.544 1.142 -3.594 1.475 -5.423 c 0.356 -4.331 -0.7 -8.798 -3.11 -12.43 c -2.262 -2.417 -5.968 -3.358 -9.09 -2.212 c -3.982 0.947 -8.275 1.328 -12.245 0.128 c -1.252 -0.456 -2.897 -1.288 -2.702 -2.874 c 0.148 -1.527 1.68 -2.563 3.144 -2.477 c 5.463 -1 11.441 -0.568 16.246 2.423 c 1.668 0.139 -1.21 -1.585 -1.786 -2.014 c -3.221 -2.08 -7.068 -3.15 -10.898 -3.108 z" style="stroke: none; stroke-width: 3.75; stroke-dasharray: none; stroke-linecap: round; stroke-linejoin: round; stroke-miterlimit: 10; fill: #ebb4b5; fill-rule: nonzero; opacity: 1;" transform="" stroke-linecap="round" />
  <path d="M 390 541.737 c 0 13.455 -7.56 24.375 -16.875 24.375 c -9.315 0 -16.875 -10.92 -16.875 -24.375 s 7.56 -24.375 16.875 -24.375 c 9.315 0 16.875 10.92 16.875 24.375 z" style="stroke: none; stroke-width: 4.06; stroke-dasharray: none; stroke-linecap: round; stroke-linejoin: round; stroke-miterlimit: 10; fill: rgb(137,15,24); fill-rule: nonzero; opacity: 1;" transform=" matrix(0.40932 -0.1469 0.19776 0.3387 -158.71 -53.833) " stroke-linecap="round" />
  <path d="M 73.913 66.462 c -2.254 3.385 -3.466 7.27 -3.195 11.211 c 0.188 9.256 8.374 17.792 18.766 19.938 c -10.202 -4.679 -17.079 -13.334 -17.079 -23.262 c 0 -2.744 0.534 -5.392 1.508 -7.887 z" style="stroke: none; stroke-width: 3.75; stroke-dasharray: none; stroke-linecap: round; stroke-linejoin: round; stroke-miterlimit: 10; fill: #5b050b; fill-rule: nonzero; opacity: 1;" transform="" stroke-linecap="round" />
  <path d="M 64.227 95.51 c 0.69 0 6.099 -1.257 8.703 -2.559 c 3.452 -1.726 5.008 -2.047 9.214 -2.047 c 3.53 0 5.74 1.59 8.702 3.07 c 3.073 1.537 5.914 -0.326 8.702 -1.023 c 3.677 -0.919 7.067 -1.507 9.215 0.64 c 2.643 2.643 0.888 5.409 -3.584 6.527 c -5.42 1.355 -11.205 2.446 -16.892 3.583 c -4.676 0.935 -7.735 2.446 -12.286 1.536 c -2.442 -0.489 -4.372 -3.86 -6.143 -5.631 c -1.902 -1.902 -3.433 -1.348 -5.63 -4.095 z" style="stroke: none; stroke-width: 1; stroke-dasharray: none; stroke-linecap: butt; stroke-linejoin: miter; stroke-miterlimit: 10; fill: #ededff; fill-rule: evenodd; opacity: 1;" transform="" stroke-linecap="round" />
  <path d="M 80.896 89.356 c -3.694 0.025 -7.423 1.375 -10.906 3.063 a 0.89 0.89 0 1 0 0.781 1.593 c 3.364 -1.63 6.894 -2.853 10.156 -2.875 c 3.263 -0.022 6.251 1.06 8.906 4.282 a 0.89 0.89 0 0 0 0.438 0.312 c 3.682 1.03 7.082 -0.662 10.156 -1.687 c 1.537 -0.513 3.003 -0.887 4.375 -0.813 c 1.372 0.074 2.703 0.536 4.125 1.844 a 0.89 0.89 0 0 0 0.25 0.187 l 1.063 0.438 a 0.89 0.89 0 0 0 0.062 0.031 l 1.125 0.375 a 0.89 0.89 0 1 0 0.563 -1.687 l -1.063 -0.344 l -0.031 -0.031 l -1.031 -0.438 c -1.609 -1.388 -3.314 -2.067 -4.969 -2.156 c -1.743 -0.094 -3.419 0.368 -5.031 0.906 c -3.167 1.057 -6.087 2.407 -8.938 1.688 c -2.912 -3.364 -6.443 -4.712 -10.031 -4.688 z" style="stroke: none; stroke-width: 1.78; stroke-dasharray: none; stroke-linecap: round; stroke-linejoin: round; stroke-miterlimit: 10; fill: #c3c3d2; fill-rule: evenodd; opacity: 1;" transform="" stroke-linecap="round" />
  <path d="M 43.781 158.716 c 0.744 -0.682 1.72 -0.927 2.178 -0.548 c 0.459 0.38 0.227 1.241 -0.517 1.923 c -0.744 0.682 -1.72 0.927 -2.178 0.548 c -0.456 -0.379 -0.229 -1.235 0.51 -1.916" style="stroke: none; stroke-width: 0.1; stroke-dasharray: none; stroke-linecap: round; stroke-linejoin: round; stroke-miterlimit: 10; fill: #b96408; fill-rule: nonzero; opacity: 1;" transform="" stroke-linecap="round" />
  <path d="M 43.198 160.68 c 0.471 0.389 1.48 0.139 2.258 -0.574 c 0.777 -0.713 1.014 -1.605 0.543 -1.994 c -0.469 -0.389 -1.475 -0.14 -2.252 0.569 l -0.007 0.005 a 0.141 0.141 0 0 0 -0.008 0.007 c -0.772 0.712 -1.003 1.598 -0.534 1.986 z m 0.106 -0.098 c -0.444 -0.367 -0.221 -1.194 0.483 -1.844 l 0.001 -0.001 a 0.14 0.14 0 0 0 0.011 -0.01 c 0.71 -0.648 1.65 -0.887 2.095 -0.519 c 0.446 0.37 0.217 1.202 -0.493 1.853 c -0.71 0.65 -1.651 0.89 -2.097 0.521 z" style="stroke: none; stroke-width: 2.09; stroke-dasharray: none; stroke-linecap: round; stroke-linejoin: round; stroke-miterlimit: 10; fill: #6c4a19; fill-rule: nonzero; opacity: 1;" transform="" stroke-linecap="round" />
  <path d="M 52.393 142.562 c 0.743 -0.682 1.72 -0.928 2.177 -0.548 c 0.459 0.38 0.227 1.24 -0.517 1.922 c -0.744 0.682 -1.72 0.927 -2.178 0.548 c -0.456 -0.378 -0.228 -1.234 0.51 -1.916" style="stroke: none; stroke-width: 0.1; stroke-dasharray: none; stroke-linecap: round; stroke-linejoin: round; stroke-miterlimit: 10; fill: #b96408; fill-rule: nonzero; opacity: 1;" transform="" stroke-linecap="round" />
  <path d="M 51.81 144.524 c 0.47 0.39 1.479 0.14 2.257 -0.573 c 0.777 -0.713 1.014 -1.604 0.544 -1.994 c -0.47 -0.388 -1.476 -0.14 -2.253 0.569 l -0.007 0.005 a 0.141 0.141 0 0 0 -0.008 0.007 c -0.772 0.713 -1.003 1.598 -0.533 1.986 z m 0.105 -0.096 c -0.444 -0.368 -0.221 -1.194 0.483 -1.845 l 0.001 -0.001 a 0.14 0.14 0 0 0 0.011 -0.01 c 0.71 -0.647 1.65 -0.887 2.095 -0.518 c 0.446 0.369 0.217 1.202 -0.493 1.852 c -0.71 0.65 -1.651 0.89 -2.097 0.522 z" style="stroke: none; stroke-width: 2.09; stroke-dasharray: none; stroke-linecap: round; stroke-linejoin: round; stroke-miterlimit: 10; fill: #6c4a19; fill-rule: nonzero; opacity: 1;" transform="" stroke-linecap="round" />
  <path d="M 68.932 137.355 c 0.649 -0.773 1.584 -1.144 2.088 -0.827 c 0.504 0.316 0.386 1.2 -0.262 1.973 c -0.649 0.773 -1.584 1.144 -2.088 0.827 c -0.502 -0.315 -0.388 -1.194 0.256 -1.966" style="stroke: none; stroke-width: 0.1; stroke-dasharray: none; stroke-linecap: round; stroke-linejoin: round; stroke-miterlimit: 10; fill: #b96408; fill-rule: nonzero; opacity: 1;" transform="" stroke-linecap="round" />
  <path d="M 68.611 139.375 c 0.517 0.325 1.485 -0.054 2.163 -0.863 c 0.678 -0.808 0.797 -1.723 0.28 -2.048 c -0.517 -0.324 -1.482 0.055 -2.16 0.858 l -0.006 0.006 a 0.15 0.15 0 0 0 -0.007 0.008 c -0.673 0.807 -0.786 1.715 -0.27 2.04 z m 0.092 -0.11 c -0.488 -0.306 -0.375 -1.155 0.238 -1.891 l 0.001 -0.002 a 0.15 0.15 0 0 0 0.01 -0.011 c 0.619 -0.734 1.52 -1.094 2.01 -0.787 c 0.49 0.308 0.371 1.163 -0.248 1.9 c -0.619 0.738 -1.52 1.1 -2.011 0.791 z" style="stroke: none; stroke-width: 2.09; stroke-dasharray: none; stroke-linecap: round; stroke-linejoin: round; stroke-miterlimit: 10; fill: #6c4a19; fill-rule: nonzero; opacity: 1;" transform="" stroke-linecap="round" />
  <path d="M 82.323 145.294 c 0.451 -0.903 1.275 -1.48 1.838 -1.29 c 0.564 0.191 0.655 1.079 0.203 1.981 c -0.451 0.902 -1.275 1.48 -1.838 1.289 c -0.562 -0.19 -0.655 -1.071 -0.208 -1.971" style="stroke: none; stroke-width: 0.1; stroke-dasharray: none; stroke-linecap: round; stroke-linejoin: round; stroke-miterlimit: 10; fill: #b96408; fill-rule: nonzero; opacity: 1;" transform="" stroke-linecap="round" />
  <path d="M 82.48 147.33 c 0.58 0.196 1.432 -0.398 1.904 -1.341 c 0.472 -0.944 0.375 -1.861 -0.203 -2.057 c -0.578 -0.195 -1.429 0.397 -1.901 1.335 l -0.005 0.008 a 0.151 0.151 0 0 0 -0.005 0.01 c -0.467 0.94 -0.366 1.85 0.21 2.045 z m 0.065 -0.128 c -0.547 -0.185 -0.633 -1.036 -0.208 -1.895 l 0.001 -0.002 a 0.151 0.151 0 0 0 0.007 -0.013 c 0.431 -0.858 1.224 -1.417 1.772 -1.232 c 0.548 0.186 0.631 1.045 0.2 1.906 c -0.43 0.861 -1.224 1.422 -1.772 1.236 z" style="stroke: none; stroke-width: 2.09; stroke-dasharray: none; stroke-linecap: round; stroke-linejoin: round; stroke-miterlimit: 10; fill: #6c4a19; fill-rule: nonzero; opacity: 1;" transform="" stroke-linecap="round" />
  <path d="M 38.51 132.301 c 0.744 -0.682 1.72 -0.927 2.178 -0.548 c 0.459 0.38 0.227 1.241 -0.517 1.923 c -0.744 0.682 -1.72 0.927 -2.178 0.548 c -0.456 -0.379 -0.228 -1.235 0.51 -1.916" style="stroke: none; stroke-width: 0.1; stroke-dasharray: none; stroke-linecap: round; stroke-linejoin: round; stroke-miterlimit: 10; fill: #b96408; fill-rule: nonzero; opacity: 1;" transform="" stroke-linecap="round" />
  <path d="M 37.927 134.264 c 0.471 0.39 1.48 0.14 2.258 -0.573 c 0.777 -0.713 1.014 -1.605 0.544 -1.994 s -1.476 -0.14 -2.253 0.569 l -0.007 0.005 a 0.141 0.141 0 0 0 -0.008 0.007 c -0.772 0.712 -1.003 1.598 -0.534 1.986 z m 0.106 -0.097 c -0.444 -0.367 -0.221 -1.194 0.483 -1.844 l 0.001 -0.001 a 0.14 0.14 0 0 0 0.011 -0.01 c 0.71 -0.648 1.65 -0.887 2.095 -0.519 c 0.446 0.37 0.217 1.202 -0.493 1.853 c -0.71 0.65 -1.651 0.89 -2.097 0.521 z" style="stroke: none; stroke-width: 2.09; stroke-dasharray: none; stroke-linecap: round; stroke-linejoin: round; stroke-miterlimit: 10; fill: #6c4a19; fill-rule: nonzero; opacity: 1;" transform="" stroke-linecap="round" />
  <path d="M 62.81 151.206 c 0.702 -0.726 1.661 -1.03 2.142 -0.678 c 0.48 0.35 0.3 1.224 -0.4 1.95 c -0.702 0.725 -1.661 1.029 -2.142 0.678 c -0.478 -0.35 -0.302 -1.219 0.394 -1.943" style="stroke: none; stroke-width: 0.1; stroke-dasharray: none; stroke-linecap: round; stroke-linejoin: round; stroke-miterlimit: 10; fill: #b96408; fill-rule: nonzero; opacity: 1;" transform="" stroke-linecap="round" />
  <path d="M 62.348 153.2 c 0.493 0.36 1.485 0.05 2.218 -0.709 c 0.733 -0.758 0.916 -1.663 0.423 -2.023 c -0.492 -0.36 -1.482 -0.05 -2.214 0.703 l -0.007 0.006 a 0.134 0.134 0 0 0 -0.008 0.008 c -0.728 0.757 -0.904 1.655 -0.412 2.014 z m 0.099 -0.104 c -0.465 -0.34 -0.293 -1.178 0.37 -1.87 l 0.002 -0.001 a 0.162 0.162 0 0 0 0.01 -0.011 c 0.67 -0.689 1.594 -0.984 2.06 -0.643 c 0.468 0.341 0.29 1.186 -0.38 1.878 c -0.67 0.693 -1.595 0.989 -2.062 0.647 z" style="stroke: none; stroke-width: 2.09; stroke-dasharray: none; stroke-linecap: round; stroke-linejoin: round; stroke-miterlimit: 10; fill: #6c4a19; fill-rule: nonzero; opacity: 1;" transform="" stroke-linecap="round" />
  <path d="M 7.3 144.322 c 0.56 -0.84 1.448 -1.31 1.984 -1.052 c 0.535 0.26 0.516 1.151 -0.044 1.99 c -0.56 0.84 -1.449 1.311 -1.984 1.052 c -0.534 -0.258 -0.517 -1.144 0.038 -1.982" style="stroke: none; stroke-width: 0.1; stroke-dasharray: none; stroke-linecap: round; stroke-linejoin: round; stroke-miterlimit: 10; fill: #b96408; fill-rule: nonzero; opacity: 1;" transform="" stroke-linecap="round" />
  <path d="M 7.203 146.363 c 0.55 0.267 1.47 -0.217 2.055 -1.094 c 0.585 -0.878 0.603 -1.8 0.053 -2.067 c -0.549 -0.265 -1.466 0.217 -2.052 1.09 l -0.006 0.006 a 0.142 0.142 0 0 0 -0.006 0.01 c -0.58 0.876 -0.592 1.79 -0.044 2.055 z m 0.08 -0.119 c -0.52 -0.25 -0.5 -1.107 0.028 -1.906 l 0.001 -0.002 a 0.142 0.142 0 0 0 0.009 -0.012 c 0.534 -0.798 1.39 -1.254 1.91 -1.003 c 0.522 0.252 0.498 1.116 -0.037 1.917 c -0.534 0.8 -1.39 1.259 -1.912 1.006 z" style="stroke: none; stroke-width: 2.09; stroke-dasharray: none; stroke-linecap: round; stroke-linejoin: round; stroke-miterlimit: 10; fill: #6c4a19; fill-rule: nonzero; opacity: 1;" transform="" stroke-linecap="round" />
  <path d="M 36.607 147.052 c 0.744 -0.682 1.72 -0.927 2.178 -0.548 c 0.458 0.38 0.226 1.241 -0.518 1.923 c -0.743 0.682 -1.719 0.927 -2.177 0.548 c -0.457 -0.379 -0.23 -1.235 0.51 -1.916" style="stroke: none; stroke-width: 0.1; stroke-dasharray: none; stroke-linecap: round; stroke-linejoin: round; stroke-miterlimit: 10; fill: #b96408; fill-rule: nonzero; opacity: 1;" transform="" stroke-linecap="round" />
  <path d="M 36.024 149.015 c 0.47 0.39 1.48 0.14 2.257 -0.573 c 0.778 -0.713 1.015 -1.605 0.544 -1.994 c -0.47 -0.389 -1.476 -0.14 -2.253 0.569 l -0.007 0.005 a 0.141 0.141 0 0 0 -0.008 0.007 c -0.772 0.712 -1.002 1.598 -0.533 1.986 z m 0.105 -0.097 c -0.444 -0.367 -0.22 -1.194 0.483 -1.844 l 0.002 -0.001 a 0.14 0.14 0 0 0 0.01 -0.01 c 0.71 -0.648 1.65 -0.887 2.095 -0.519 c 0.446 0.37 0.217 1.202 -0.493 1.853 c -0.71 0.65 -1.65 0.89 -2.097 0.521 z" style="stroke: none; stroke-width: 2.09; stroke-dasharray: none; stroke-linecap: round; stroke-linejoin: round; stroke-miterlimit: 10; fill: #6c4a19; fill-rule: nonzero; opacity: 1;" transform="" stroke-linecap="round" />
  <path d="M 22.41 142.124 c 0.743 -0.682 1.719 -0.927 2.177 -0.548 c 0.458 0.38 0.227 1.24 -0.517 1.923 c -0.744 0.681 -1.72 0.927 -2.178 0.547 c -0.457 -0.378 -0.229 -1.234 0.51 -1.915" style="stroke: none; stroke-width: 0.1; stroke-dasharray: none; stroke-linecap: round; stroke-linejoin: round; stroke-miterlimit: 10; fill: #b96408; fill-rule: nonzero; opacity: 1;" transform="" stroke-linecap="round" />
  <path d="M 21.826 144.087 c 0.47 0.39 1.48 0.14 2.257 -0.573 c 0.778 -0.713 1.015 -1.605 0.544 -1.995 c -0.47 -0.388 -1.475 -0.139 -2.252 0.57 l -0.007 0.004 a 0.141 0.141 0 0 0 -0.008 0.008 c -0.773 0.712 -1.003 1.597 -0.534 1.986 z m 0.106 -0.097 c -0.444 -0.368 -0.222 -1.194 0.482 -1.844 l 0.002 -0.002 a 0.14 0.14 0 0 0 0.01 -0.01 c 0.71 -0.647 1.65 -0.886 2.096 -0.518 c 0.446 0.37 0.217 1.202 -0.493 1.852 c -0.71 0.651 -1.651 0.891 -2.097 0.522 z" style="stroke: none; stroke-width: 2.09; stroke-dasharray: none; stroke-linecap: round; stroke-linejoin: round; stroke-miterlimit: 10; fill: #6c4a19; fill-rule: nonzero; opacity: 1;" transform="" stroke-linecap="round" />
  <path d="M 68.478 161.762 c 0.64 -0.781 1.57 -1.163 2.078 -0.853 c 0.508 0.31 0.401 1.196 -0.238 1.977 c -0.64 0.78 -1.57 1.162 -2.078 0.852 c -0.506 -0.31 -0.402 -1.19 0.232 -1.969" style="stroke: none; stroke-width: 0.1; stroke-dasharray: none; stroke-linecap: round; stroke-linejoin: round; stroke-miterlimit: 10; fill: #b96408; fill-rule: nonzero; opacity: 1;" transform="" stroke-linecap="round" />
  <path d="M 68.182 163.785 c 0.521 0.32 1.484 -0.072 2.152 -0.888 c 0.669 -0.817 0.776 -1.733 0.255 -2.052 c -0.52 -0.317 -1.48 0.073 -2.149 0.884 l -0.006 0.006 a 0.15 0.15 0 0 0 -0.007 0.009 c -0.663 0.815 -0.765 1.724 -0.245 2.041 z m 0.09 -0.11 c -0.491 -0.301 -0.388 -1.15 0.216 -1.895 l 0.001 -0.001 a 0.128 0.128 0 0 0 0.01 -0.012 c 0.61 -0.741 1.506 -1.112 2 -0.81 c 0.493 0.301 0.385 1.158 -0.225 1.903 c -0.61 0.745 -1.508 1.117 -2.002 0.815 z" style="stroke: none; stroke-width: 2.09; stroke-dasharray: none; stroke-linecap: round; stroke-linejoin: round; stroke-miterlimit: 10; fill: #6c4a19; fill-rule: nonzero; opacity: 1;" transform="" stroke-linecap="round" />
  <path d="M 142.53 161.447 c -0.522 -0.864 -1.39 -1.374 -1.936 -1.139 c -0.546 0.235 -0.566 1.127 -0.044 1.99 c 0.522 0.864 1.389 1.374 1.935 1.139 c 0.545 -0.234 0.567 -1.12 0.05 -1.982" style="stroke: none; stroke-width: 0.1; stroke-dasharray: none; stroke-linecap: round; stroke-linejoin: round; stroke-miterlimit: 10; fill: #b96408; fill-rule: nonzero; opacity: 1;" transform="" stroke-linecap="round" />
  <path d="M 142.508 163.49 c -0.561 0.242 -1.459 -0.282 -2.004 -1.185 c -0.546 -0.903 -0.522 -1.825 0.039 -2.067 c 0.56 -0.24 1.455 0.282 2.001 1.18 l 0.006 0.007 a 0.168 0.168 0 0 1 0.005 0.009 c 0.54 0.901 0.513 1.816 -0.047 2.056 z m -0.074 -0.122 c 0.53 -0.228 0.549 -1.084 0.056 -1.906 l -0.001 -0.002 a 0.145 0.145 0 0 1 -0.008 -0.013 c -0.498 -0.82 -1.333 -1.315 -1.864 -1.086 c -0.532 0.228 -0.546 1.092 -0.048 1.916 c 0.498 0.824 1.333 1.32 1.865 1.09 z" style="stroke: none; stroke-width: 2.09; stroke-dasharray: none; stroke-linecap: round; stroke-linejoin: round; stroke-miterlimit: 10; fill: #6c4a19; fill-rule: nonzero; opacity: 1;" transform="" stroke-linecap="round" />
  <path d="M 135.806 147.73 c -0.501 -0.876 -1.356 -1.406 -1.908 -1.184 c -0.552 0.222 -0.593 1.113 -0.092 1.988 c 0.502 0.876 1.356 1.406 1.908 1.184 c 0.55 -0.221 0.594 -1.106 0.097 -1.98" style="stroke: none; stroke-width: 0.1; stroke-dasharray: none; stroke-linecap: round; stroke-linejoin: round; stroke-miterlimit: 10; fill: #b96408; fill-rule: nonzero; opacity: 1;" transform="" stroke-linecap="round" />
  <path d="M 135.736 149.772 c -0.567 0.229 -1.452 -0.316 -1.976 -1.232 c -0.524 -0.915 -0.479 -1.837 0.088 -2.065 c 0.565 -0.227 1.448 0.316 1.973 1.227 l 0.005 0.007 a 0.114 0.114 0 0 1 0.005 0.009 c 0.52 0.914 0.47 1.827 -0.095 2.054 z m -0.071 -0.124 c 0.535 -0.215 0.574 -1.07 0.1 -1.904 a 0.175 0.175 0 0 0 -0.008 -0.014 c -0.479 -0.833 -1.302 -1.346 -1.838 -1.13 c -0.537 0.215 -0.572 1.078 -0.093 1.914 c 0.478 0.835 1.302 1.35 1.839 1.134 z" style="stroke: none; stroke-width: 2.09; stroke-dasharray: none; stroke-linecap: round; stroke-linejoin: round; stroke-miterlimit: 10; fill: #6c4a19; fill-rule: nonzero; opacity: 1;" transform="" stroke-linecap="round" />
  <path d="M 116.272 139.573 c -0.4 -0.926 -1.189 -1.55 -1.762 -1.391 c -0.574 0.158 -0.715 1.04 -0.316 1.966 c 0.4 0.926 1.19 1.55 1.763 1.39 c 0.572 -0.157 0.714 -1.032 0.32 -1.956" style="stroke: none; stroke-width: 0.1; stroke-dasharray: none; stroke-linecap: round; stroke-linejoin: round; stroke-miterlimit: 10; fill: #b96408; fill-rule: nonzero; opacity: 1;" transform="" stroke-linecap="round" />
  <path d="M 115.972 141.597 c -0.59 0.162 -1.407 -0.479 -1.825 -1.447 c -0.418 -0.97 -0.269 -1.88 0.32 -2.043 c 0.587 -0.162 1.403 0.477 1.822 1.442 l 0.005 0.007 a 0.15 0.15 0 0 1 0.004 0.01 c 0.413 0.966 0.26 1.868 -0.326 2.03 z m -0.057 -0.132 c 0.556 -0.153 0.69 -0.999 0.314 -1.88 v -0.002 a 0.194 0.194 0 0 1 -0.006 -0.014 c -0.382 -0.88 -1.143 -1.484 -1.7 -1.33 c -0.557 0.154 -0.69 1.007 -0.308 1.892 c 0.381 0.884 1.142 1.488 1.7 1.334 z" style="stroke: none; stroke-width: 2.09; stroke-dasharray: none; stroke-linecap: round; stroke-linejoin: round; stroke-miterlimit: 10; fill: #6c4a19; fill-rule: nonzero; opacity: 1;" transform="" stroke-linecap="round" />
  <path d="M 104.41 146.878 c -0.282 -0.969 -0.99 -1.684 -1.578 -1.597 c -0.589 0.087 -0.837 0.944 -0.554 1.912 c 0.283 0.969 0.99 1.684 1.58 1.597 c 0.586 -0.087 0.834 -0.937 0.556 -1.903" style="stroke: none; stroke-width: 0.1; stroke-dasharray: none; stroke-linecap: round; stroke-linejoin: round; stroke-miterlimit: 10; fill: #b96408; fill-rule: nonzero; opacity: 1;" transform="" stroke-linecap="round" />
  <path d="M 103.863 148.85 c -0.604 0.09 -1.337 -0.647 -1.633 -1.66 c -0.296 -1.012 -0.037 -1.897 0.568 -1.987 c 0.602 -0.089 1.334 0.646 1.631 1.654 l 0.004 0.008 a 0.158 0.158 0 0 1 0.003 0.01 c 0.291 1.01 0.03 1.886 -0.573 1.976 z m -0.04 -0.137 c 0.57 -0.084 0.808 -0.907 0.543 -1.827 v -0.002 a 0.146 0.146 0 0 1 -0.004 -0.014 c -0.272 -0.922 -0.953 -1.614 -1.524 -1.53 c -0.573 0.085 -0.808 0.916 -0.538 1.84 c 0.27 0.925 0.95 1.618 1.523 1.533 z" style="stroke: none; stroke-width: 2.09; stroke-dasharray: none; stroke-linecap: round; stroke-linejoin: round; stroke-miterlimit: 10; fill: #6c4a19; fill-rule: nonzero; opacity: 1;" transform="" stroke-linecap="round" />
  <path d="M 154.785 138.542 c -0.502 -0.875 -1.356 -1.406 -1.908 -1.184 c -0.552 0.222 -0.593 1.113 -0.092 1.989 c 0.501 0.876 1.356 1.406 1.908 1.184 c 0.55 -0.222 0.593 -1.106 0.097 -1.98" style="stroke: none; stroke-width: 0.1; stroke-dasharray: none; stroke-linecap: round; stroke-linejoin: round; stroke-miterlimit: 10; fill: #b96408; fill-rule: nonzero; opacity: 1;" transform="" stroke-linecap="round" />
  <path d="M 154.715 140.585 c -0.567 0.228 -1.452 -0.317 -1.976 -1.232 c -0.525 -0.916 -0.48 -1.837 0.088 -2.065 c 0.565 -0.228 1.448 0.315 1.973 1.226 l 0.005 0.007 a 0.114 0.114 0 0 1 0.005 0.01 c 0.52 0.913 0.47 1.827 -0.095 2.054 z m -0.071 -0.124 c 0.534 -0.215 0.573 -1.07 0.1 -1.904 a 0.175 0.175 0 0 0 -0.008 -0.015 c -0.48 -0.832 -1.302 -1.346 -1.838 -1.13 c -0.537 0.216 -0.572 1.079 -0.094 1.914 c 0.479 0.836 1.302 1.35 1.84 1.135 z" style="stroke: none; stroke-width: 2.09; stroke-dasharray: none; stroke-linecap: round; stroke-linejoin: round; stroke-miterlimit: 10; fill: #6c4a19; fill-rule: nonzero; opacity: 1;" transform="" stroke-linecap="round" />
  <path d="M 123.476 153.924 c -0.487 -0.884 -1.334 -1.427 -1.89 -1.213 c -0.555 0.213 -0.61 1.104 -0.121 1.987 c 0.487 0.883 1.334 1.426 1.89 1.213 c 0.553 -0.213 0.61 -1.098 0.126 -1.979" style="stroke: none; stroke-width: 0.1; stroke-dasharray: none; stroke-linecap: round; stroke-linejoin: round; stroke-miterlimit: 10; fill: #b96408; fill-rule: nonzero; opacity: 1;" transform="" stroke-linecap="round" />
  <path d="M 123.375 155.965 c -0.57 0.22 -1.447 -0.339 -1.957 -1.262 c -0.51 -0.924 -0.45 -1.844 0.12 -2.064 c 0.568 -0.218 1.443 0.338 1.953 1.257 l 0.006 0.007 a 0.136 0.136 0 0 1 0.005 0.01 c 0.505 0.92 0.441 1.833 -0.127 2.052 z m -0.07 -0.125 c 0.539 -0.207 0.59 -1.062 0.13 -1.902 v -0.002 a 0.195 0.195 0 0 1 -0.008 -0.013 c -0.466 -0.84 -1.281 -1.366 -1.82 -1.158 c -0.54 0.208 -0.589 1.07 -0.123 1.912 c 0.466 0.843 1.281 1.37 1.822 1.163 z" style="stroke: none; stroke-width: 2.09; stroke-dasharray: none; stroke-linecap: round; stroke-linejoin: round; stroke-miterlimit: 10; fill: #6c4a19; fill-rule: nonzero; opacity: 1;" transform="" stroke-linecap="round" />
  <path d="M 177.938 146.68 c -0.491 -0.882 -1.34 -1.422 -1.894 -1.206 c -0.555 0.215 -0.606 1.106 -0.115 1.987 s 1.34 1.422 1.894 1.206 c 0.553 -0.215 0.606 -1.1 0.12 -1.979" style="stroke: none; stroke-width: 0.1; stroke-dasharray: none; stroke-linecap: round; stroke-linejoin: round; stroke-miterlimit: 10; fill: #b96408; fill-rule: nonzero; opacity: 1;" transform="" stroke-linecap="round" />
  <path d="M 177.844 148.722 c -0.57 0.221 -1.448 -0.334 -1.962 -1.256 c -0.513 -0.921 -0.457 -1.842 0.112 -2.063 c 0.568 -0.221 1.445 0.332 1.959 1.249 l 0.005 0.007 a 0.153 0.153 0 0 1 0.005 0.01 c 0.51 0.919 0.449 1.832 -0.119 2.053 z m -0.07 -0.125 c 0.538 -0.21 0.587 -1.064 0.123 -1.903 v -0.002 a 0.196 0.196 0 0 1 -0.008 -0.013 c -0.47 -0.838 -1.286 -1.36 -1.825 -1.151 c -0.54 0.21 -0.584 1.072 -0.116 1.913 c 0.47 0.84 1.287 1.365 1.826 1.156 z" style="stroke: none; stroke-width: 2.09; stroke-dasharray: none; stroke-linecap: round; stroke-linejoin: round; stroke-miterlimit: 10; fill: #6c4a19; fill-rule: nonzero; opacity: 1;" transform="" stroke-linecap="round" />
  <path d="M 160.933 150.983 c -0.558 -0.841 -1.446 -1.314 -1.982 -1.057 c -0.536 0.258 -0.519 1.15 0.039 1.99 c 0.558 0.842 1.445 1.315 1.982 1.057 c 0.534 -0.257 0.52 -1.143 -0.034 -1.982" style="stroke: none; stroke-width: 0.1; stroke-dasharray: none; stroke-linecap: round; stroke-linejoin: round; stroke-miterlimit: 10; fill: #b96408; fill-rule: nonzero; opacity: 1;" transform="" stroke-linecap="round" />
  <path d="M 160.997 153.025 c -0.55 0.264 -1.47 -0.221 -2.052 -1.1 c -0.584 -0.88 -0.599 -1.802 -0.048 -2.067 c 0.55 -0.264 1.466 0.22 2.05 1.095 c 0 0.002 0.003 0.004 0.005 0.007 a 0.156 0.156 0 0 1 0.006 0.008 c 0.578 0.878 0.588 1.793 0.04 2.057 z m -0.079 -0.12 c 0.52 -0.25 0.502 -1.105 -0.024 -1.906 l -0.001 -0.002 a 0.169 0.169 0 0 1 -0.009 -0.012 c -0.532 -0.8 -1.387 -1.258 -1.908 -1.008 c -0.522 0.251 -0.5 1.114 0.032 1.917 c 0.533 0.802 1.388 1.262 1.91 1.011 z" style="stroke: none; stroke-width: 2.09; stroke-dasharray: none; stroke-linecap: round; stroke-linejoin: round; stroke-miterlimit: 10; fill: #6c4a19; fill-rule: nonzero; opacity: 1;" transform="" stroke-linecap="round" />
  <path d="M 115.372 164.486 c -0.417 -0.919 -1.218 -1.527 -1.789 -1.358 c -0.57 0.17 -0.694 1.053 -0.277 1.972 c 0.417 0.918 1.219 1.526 1.789 1.357 c 0.568 -0.169 0.694 -1.046 0.281 -1.962" style="stroke: none; stroke-width: 0.1; stroke-dasharray: none; stroke-linecap: round; stroke-linejoin: round; stroke-miterlimit: 10; fill: #b96408; fill-rule: nonzero; opacity: 1;" transform="" stroke-linecap="round" />
  <path d="M 115.11 166.514 c -0.585 0.174 -1.415 -0.451 -1.852 -1.412 c -0.436 -0.96 -0.304 -1.873 0.281 -2.047 c 0.584 -0.174 1.413 0.45 1.85 1.405 l 0.004 0.008 a 0.136 0.136 0 0 1 0.005 0.01 c 0.431 0.958 0.296 1.863 -0.287 2.036 z m -0.059 -0.13 c 0.553 -0.164 0.672 -1.012 0.279 -1.886 l -0.001 -0.002 a 0.136 0.136 0 0 1 -0.006 -0.014 c -0.4 -0.873 -1.17 -1.462 -1.725 -1.297 c -0.554 0.165 -0.67 1.02 -0.272 1.897 c 0.399 0.877 1.17 1.467 1.725 1.302 z" style="stroke: none; stroke-width: 2.09; stroke-dasharray: none; stroke-linecap: round; stroke-linejoin: round; stroke-miterlimit: 10; fill: #6c4a19; fill-rule: nonzero; opacity: 1;" transform="" stroke-linecap="round" />
  <path d="M 94.182 160.537 c 0.15 -0.998 -0.192 -1.944 -0.762 -2.112 c -0.571 -0.168 -1.156 0.505 -1.306 1.503 c -0.15 0.998 0.192 1.944 0.763 2.112 c 0.569 0.168 1.151 -0.5 1.304 -1.493" style="stroke: none; stroke-width: 0.1; stroke-dasharray: none; stroke-linecap: round; stroke-linejoin: round; stroke-miterlimit: 10; fill: #b96408; fill-rule: nonzero; opacity: 1;" transform="" stroke-linecap="round" />
  <path d="M 92.852 162.103 c -0.586 -0.173 -0.942 -1.15 -0.785 -2.193 c 0.156 -1.043 0.763 -1.738 1.35 -1.565 c 0.584 0.172 0.94 1.146 0.786 2.186 v 0.009 a 0.144 0.144 0 0 1 -0.002 0.01 c -0.159 1.039 -0.765 1.725 -1.349 1.553 z m 0.021 -0.142 c 0.554 0.163 1.114 -0.484 1.26 -1.43 v -0.003 a 0.148 0.148 0 0 1 0.003 -0.015 c 0.14 -0.95 -0.187 -1.863 -0.74 -2.026 c -0.556 -0.164 -1.119 0.491 -1.262 1.443 c -0.143 0.953 0.184 1.867 0.74 2.031 z" style="stroke: none; stroke-width: 2.09; stroke-dasharray: none; stroke-linecap: round; stroke-linejoin: round; stroke-miterlimit: 10; fill: #6c4a19; fill-rule: nonzero; opacity: 1;" transform="" stroke-linecap="round" />
  <path d="M 42.343 102.156 c -10.418 1.452 -16.013 11.395 -22.226 18.7 c -1.915 3.108 -6.876 12.144 -1.248 12.625 c 8.941 -5.261 16.346 -14.93 27.556 -15.04 c 8.823 -2.2 3.523 14.029 10.948 10.638 c 7.294 -5.446 18.008 -9.25 26.306 -3.71 c 4.818 3.26 6.85 10.455 13.103 11.415 c 5.86 -0.775 8.1 -8.057 14.165 -8.887 c 7.348 -2.33 15.615 0.274 20.764 5.886 c 3.345 2.898 10.97 8.092 13.344 1.647 c -0.69 -5.085 3.731 -10.291 9.07 -8.45 c 6.235 1.339 10.914 6.066 16.603 8.52 c 7.37 2.407 6.108 -8.424 0.332 -9.408 c -7.52 -5.208 -15.193 -10.727 -24.048 -13.351 c -10.563 -1.96 -18.84 6.77 -28.739 8.497 c -10.492 -0.514 -19.52 -10.209 -30.355 -6.704 c -8.824 3.584 -20.606 5.265 -28.036 -2.07 c -4.219 -5.286 -10.083 -11.414 -17.54 -10.308 z" style="stroke: none; stroke-width: 1; stroke-dasharray: none; stroke-linecap: butt; stroke-linejoin: miter; stroke-miterlimit: 10; fill: #e1e1ff; fill-rule: nonzero; opacity: 1;" transform="" stroke-linecap="round" />
  <path d="M 77.875 94.046 c -4.403 1.08 -6.449 1.754 -2.877 6.264 c 3.341 7.878 11.027 2.236 16.475 2.211 c 3.447 -1.079 18.891 -2.445 8.822 -5.608 c -2.067 -0.446 -11.282 2.846 -15.313 -2.524 c -2.168 -1.677 -4.679 -0.863 -7.107 -0.343 z" style="stroke: none; stroke-width: 1; stroke-dasharray: none; stroke-linecap: butt; stroke-linejoin: miter; stroke-miterlimit: 10; fill: #e1e1ff; fill-rule: evenodd; opacity: 1;" transform="" stroke-linecap="round" />
  <path d="M 96.949 61.166 c 0 1 -1.959 1.81 -4.372 1.81 c -2.414 0 -4.372 -0.81 -4.372 -1.81 c 0 -0.998 1.958 -1.809 4.372 -1.809 c 2.413 0 4.372 0.81 4.372 1.81 z" style="stroke: none; stroke-width: 0.31; stroke-dasharray: none; stroke-linecap: butt; stroke-linejoin: miter; stroke-miterlimit: 10; fill: rgb(0,0,0); fill-rule: evenodd; opacity: 1;" transform="" stroke-linecap="round" />
  <path d="M 91.322 62.793 c 0.53 -11.924 2.396 -24.097 -0.563 -35.859 c -1.526 -7.002 -3.695 -13.94 -7.22 -20.206 c -0.646 -1.668 1.376 -2.388 1.606 -0.402 c 3.434 5.618 5.45 11.935 6.958 18.305 a 69.247 69.247 0 0 1 2.343 17.553 c 0.104 6.485 -0.181 12.976 -0.355 19.452 c -0.238 1.196 -1.767 2.239 -2.769 1.157 z" style="stroke: none; stroke-width: 0.29; stroke-dasharray: none; stroke-linecap: butt; stroke-linejoin: miter; stroke-miterlimit: 10; fill: #9e6800; fill-rule: evenodd; opacity: 1;" transform="" stroke-linecap="round" />
  <path d="M 83.969 5.063 c -0.545 0.168 -0.907 0.893 -0.563 1.78 c 3.514 6.25 5.696 13.164 7.219 20.157 v 0.031 c 2.95 11.725 1.093 23.878 0.563 35.813 l -0.032 0.062 l 0.063 0.032 c 0.542 0.585 1.264 0.609 1.844 0.312 a 2.255 2.255 0 0 0 1.156 -1.531 v -0.032 c 0.174 -6.474 0.479 -12.978 0.375 -19.468 a 69.178 69.178 0 0 0 -2.344 -17.563 c -1.51 -6.377 -3.522 -12.706 -6.969 -18.343 h -0.031 c -0.07 -0.475 -0.205 -0.86 -0.438 -1.063 a 0.888 0.888 0 0 0 -0.843 -0.188 z m 0.094 0.28 c 0.18 -0.055 0.354 -0.03 0.53 0.126 c 0.178 0.155 0.352 0.466 0.407 0.937 v 0.032 h 0.031 c 3.422 5.598 5.431 11.918 6.938 18.28 c 1.529 5.714 2.282 11.618 2.312 17.532 c 0.104 6.468 -0.17 12.94 -0.344 19.406 v 0.032 a 2.019 2.019 0 0 1 -1 1.312 c -0.481 0.247 -1.016 0.24 -1.468 -0.219 c 0.533 -11.894 2.4 -24.065 -0.563 -35.843 c -1.527 -7.01 -3.716 -13.934 -7.25 -20.22 h 0.031 c -0.302 -0.779 0.014 -1.262 0.376 -1.374 z" style="stroke: none; stroke-width: 0.29; stroke-dasharray: none; stroke-linecap: butt; stroke-linejoin: miter; stroke-miterlimit: 10; fill: #390308; fill-rule: evenodd; opacity: 1;" transform="" stroke-linecap="round" />
  <path d="M 84.306 6.3 c -0.038 1.821 1.569 3.473 2.182 5.218 c 3.413 8.062 5.714 16.661 6.47 25.393 c 0.615 8.735 -0.556 17.555 -0.783 26.214 c 2.218 0.054 1.38 -2.87 1.606 -4.289 c 0.25 -11.086 1.003 -22.394 -1.99 -33.213 c -1.527 -6.472 -3.64 -12.864 -7.03 -18.612 c -0.088 -0.186 -0.094 -0.862 -0.455 -0.71 z" style="stroke: none; stroke-width: 0.31; stroke-dasharray: none; stroke-linecap: butt; stroke-linejoin: miter; stroke-miterlimit: 10; fill: rgb(255,255,255); fill-rule: evenodd; opacity: 1;" transform="" stroke-linecap="round" />
  <path d="M 85.58 12.085 c -3.332 -0.627 -3.67 -4.701 -6.144 -6.37 c -2.834 -2.41 0.466 -5.793 3.328 -4.09 c 3.206 1.064 2.84 4.968 5.067 6.957 c 1.795 1.794 -0.47 3.386 -2.251 3.503 z" style="stroke: none; stroke-width: 0.73; stroke-dasharray: none; stroke-linecap: round; stroke-linejoin: round; stroke-miterlimit: 10; fill: #764500; fill-rule: evenodd; opacity: 1;" transform="" stroke-linecap="round" />
  <path d="M 80.594 0.875 c -0.75 0.128 -1.436 0.5 -1.906 1.031 c -0.471 0.53 -0.74 1.202 -0.688 1.938 c 0.052 0.736 0.42 1.504 1.188 2.156 l 0.03 0.031 c 1.13 0.762 1.833 2.142 2.657 3.469 c 0.824 1.327 1.82 2.63 3.625 2.969 a 0.364 0.364 0 0 0 0.094 0 c 0.988 -0.066 2.064 -0.512 2.719 -1.25 c 0.327 -0.37 0.546 -0.831 0.53 -1.344 c -0.015 -0.513 -0.255 -1.037 -0.75 -1.531 a 0.364 0.364 0 0 0 -0.03 -0.031 c -1.018 -0.91 -1.465 -2.306 -2.063 -3.688 c -0.59 -1.362 -1.38 -2.723 -3.063 -3.313 c -0.02 -0.012 -0.042 0.012 -0.062 0 c -0.77 -0.439 -1.55 -0.562 -2.281 -0.437 z m 0.094 0.688 c 0.584 -0.103 1.231 -0.008 1.874 0.375 c 0.03 0.014 0.062 0.025 0.094 0.03 c 1.473 0.49 2.08 1.604 2.656 2.938 c 0.572 1.322 1.066 2.86 2.25 3.938 c 0.012 0.01 0.02 0.02 0.032 0.031 c 0.37 0.384 0.522 0.748 0.531 1.031 c 0.009 0.294 -0.106 0.545 -0.344 0.813 c -0.461 0.52 -1.378 0.929 -2.156 1 c -1.498 -0.3 -2.336 -1.323 -3.125 -2.594 c -0.79 -1.272 -1.524 -2.747 -2.844 -3.656 v -0.032 c -0.65 -0.552 -0.9 -1.102 -0.937 -1.625 a 1.95 1.95 0 0 1 0.5 -1.437 c 0.358 -0.403 0.884 -0.71 1.469 -0.813 z" style="stroke: none; stroke-width: 0.73; stroke-dasharray: none; stroke-linecap: round; stroke-linejoin: round; stroke-miterlimit: 10; fill: #3e1b13; fill-rule: evenodd; opacity: 1;" transform="" stroke-linecap="round" />
  <path d="M 81.333 2.367 c -0.889 1.22 1.233 2.233 1.689 3.317 c 1.01 1.419 1.863 4.567 3.925 3.97 c 0.944 -0.365 -0.213 -1.43 -0.728 -2.187 c -0.516 -0.757 -0.73 -1.821 -1.093 -2.55 c -0.699 -1.34 -2.186 -3.643 -3.793 -2.55 z" style="stroke: none; stroke-width: 2.5; stroke-dasharray: none; stroke-linecap: round; stroke-linejoin: round; stroke-miterlimit: 10; fill: #573200; fill-rule: evenodd; opacity: 1;" transform="" stroke-linecap="round" />
  <path d="M 79.852 5.33 c 2.402 1.611 2.736 5.412 5.784 6.158 c -2.122 -1.659 -2.332 -4.385 -4.882 -5.842 c -0.729 -0.365 -1.076 -0.543 -0.902 -0.315 z" style="stroke: none; stroke-width: 2.5; stroke-dasharray: none; stroke-linecap: round; stroke-linejoin: round; stroke-miterlimit: 10; fill: #8f5400; fill-rule: evenodd; opacity: 1;" transform="" stroke-linecap="round" />
  <path d="M 86.188 59.5 A 0.592 0.592 0 0 0 86 60.531 c 1.112 0.905 2.498 2.102 4.031 2.782 c 1.505 0.667 3.252 0.76 4.844 -0.438 l 0.031 0.031 c 0.84 -0.464 1.786 -1.027 2.656 -1.281 c 0.87 -0.254 1.573 -0.249 2.282 0.375 a 0.598 0.598 0 0 0 0.781 -0.906 c -1.036 -0.912 -2.316 -0.943 -3.406 -0.625 c -1.09 0.318 -2.103 0.93 -2.906 1.375 a 0.592 0.592 0 0 0 -0.063 0.062 c -1.271 1.002 -2.45 0.89 -3.75 0.313 c -1.3 -0.577 -2.62 -1.675 -3.75 -2.594 a 0.592 0.592 0 0 0 -0.563 -0.125 z" style="stroke: none; stroke-width: 1.18; stroke-dasharray: none; stroke-linecap: round; stroke-linejoin: round; stroke-miterlimit: 10; fill: #390308; fill-rule: evenodd; opacity: 1;" transform="" stroke-linecap="round" />
</g>
  <g transform="translate(215.01 47.4) scale(1.4 1.4)">
   <text font-family="GoodDog" font-size="40" font-weight="bold" style="stroke: none; stroke-width: 1; stroke-dasharray: none; stroke-linecap: butt; stroke-linejoin: miter; stroke-miterlimit: 10; fill: #ffffff; fill-rule: nonzero; opacity: 1;" ><tspan x="-2.41" y="8.98" style="stroke: none; stroke-width: 0; stroke-dasharray: none; stroke-linecap: butt; stroke-linejoin: miter; stroke-miterlimit: 4; fill: #ffffff; fill-rule: ; opacity: 1;">&apos;</tspan></text>
 </g>
</svg>